<?xml version="1.0" encoding="utf-8"?>
<!-- Generator: Adobe Illustrator 18.1.1, SVG Export Plug-In . SVG Version: 6.00 Build 0)  -->
<svg version="1.1" id="Laag_1" xmlns="http://www.w3.org/2000/svg" xmlns:xlink="http://www.w3.org/1999/xlink" x="0px" y="0px"
	 viewBox="-256 536 512 512" enable-background="new -256 536 512 512" xml:space="preserve">
<g>
	<path fill="#FFFFFF" d="M-102.7,649.6c-8.5,0-15.4,6.9-15.4,15.4v254.1c0,8.5,6.9,15.4,15.4,15.4h207.1c8.5,0,15.4-6.9,15.4-15.4
		V665c0-8.5-6.9-15.4-15.4-15.4C104.4,649.6-102.7,649.6-102.7,649.6z M100.7,915.5H-99.1V668.7h199.7V915.5z"/>
	<path fill="#FFFFFF" d="M8.1,728.5h64.7c7.9,0,14.3-6.1,14.3-14c0-7.9-6.4-14-14.3-14H8.1c-7.9,0-14.3,6.1-14.3,14
		C-6.2,722.4,0.2,728.5,8.1,728.5z"/>
	<path fill="#FFFFFF" d="M-53.1,747.1c17.6,0,31.9-14.3,31.9-31.9c0-17.6-14.3-31.9-31.9-31.9S-85,697.6-85,715.2
		C-85,732.8-70.7,747.1-53.1,747.1z"/>
	<path fill="#FFFFFF" d="M8.1,801h64.7c7.9,0,14.3-6.1,14.3-14c0-7.9-6.4-14-14.3-14H8.1c-7.9,0-14.3,6.1-14.3,14
		C-6.2,794.9,0.2,801,8.1,801z"/>
	<path fill="#FFFFFF" d="M-53.1,823.4c17.6,0,31.9-14.3,31.9-31.9c0-17.6-14.3-31.9-31.9-31.9S-85,773.9-85,791.5
		C-85,809.1-70.7,823.4-53.1,823.4z M-53.1,778.7c7.1,0,12.8,5.8,12.8,12.8s-5.8,12.8-12.8,12.8c-7.1,0-12.8-5.8-12.8-12.8
		C-66,784.4-60.2,778.7-53.1,778.7z"/>
	<path fill="#FFFFFF" d="M8.1,881.2h64.7c7.9,0,14.3-6.1,14.3-14c0-7.9-6.4-14-14.3-14H8.1c-7.9,0-14.3,6.1-14.3,14
		C-6.2,875.1,0.2,881.2,8.1,881.2z"/>
	<path fill="#FFFFFF" d="M-53.1,899.7c17.6,0,31.9-14.3,31.9-31.9c0-17.6-14.3-31.9-31.9-31.9S-85,850.2-85,867.8
		C-85,885.4-70.7,899.7-53.1,899.7z M-53.1,855c7.1,0,12.8,5.8,12.8,12.8c0,7.1-5.8,12.8-12.8,12.8c-7.1,0-12.8-5.8-12.8-12.8
		C-66,860.7-60.2,855-53.1,855z"/>
</g>
</svg>
