<?xml version="1.0" encoding="utf-8"?>
<!-- Generator: Adobe Illustrator 15.1.0, SVG Export Plug-In . SVG Version: 6.00 Build 0)  -->
<!DOCTYPE svg PUBLIC "-//W3C//DTD SVG 1.1//EN" "http://www.w3.org/Graphics/SVG/1.1/DTD/svg11.dtd">
<svg version="1.1" id="Layer_1" xmlns="http://www.w3.org/2000/svg" xmlns:xlink="http://www.w3.org/1999/xlink" x="0px" y="0px"
	 width="128px" height="128px" viewBox="0 0 128 128" enable-background="new 0 0 128 128" xml:space="preserve">
<path fill="#010202" d="M69.818,33.736l-5.986,28.443c1.899,0.617,3.608,0.925,5.125,0.925c4.331,0,7.825-1.46,10.485-4.383
	c2.658-2.921,3.987-6.772,3.987-11.553c0-4.06-1.239-7.313-3.714-9.761C77.238,34.96,73.939,33.736,69.818,33.736z M64,0
	C28.654,0,0,28.728,0,64.167c0,35.438,28.654,64.166,64,64.166c35.346,0,64.001-28.728,64.001-64.166C128.001,28.728,99.346,0,64,0z
	 M90.634,61.169c-4.434,3.946-9.869,5.921-16.311,5.921c-3.56,0-7.254-0.707-11.081-2.113l-4.661,22.149
	c-0.114,0.417-0.171,0.815-0.171,1.193c0,3.566,2.796,5.537,8.388,5.918l-0.453,1.992H34.839l0.34-1.992
	c3.557-0.721,6.009-1.746,7.351-3.073s2.336-3.568,2.98-6.716l10.445-49.63c-3.937,1.252-8.002,3.302-12.204,6.147l-1.023-1.479
	c9.84-7.475,19.604-11.213,29.293-11.213c7.567,0,13.67,1.717,18.306,5.15c4.637,3.435,6.953,7.902,6.953,13.403
	C97.281,52.443,95.066,57.225,90.634,61.169z"/>
</svg>
