<?xml version="1.0" encoding="utf-8"?>
<!-- Generator: Adobe Illustrator 18.1.1, SVG Export Plug-In . SVG Version: 6.00 Build 0)  -->
<svg version="1.1" id="Laag_1" xmlns="http://www.w3.org/2000/svg" xmlns:xlink="http://www.w3.org/1999/xlink" x="0px" y="0px"
	 viewBox="-256 536 512 512" enable-background="new -256 536 512 512" xml:space="preserve">
<g>
	<g>
		<path fill="#FFFFFF" d="M131.3,884h-262.5c-10.9,0-19.7-8.9-19.7-19.7V719.7c0-10.9,8.9-19.7,19.7-19.7h262.5
			c10.9,0,19.7,8.9,19.7,19.7v144.5C151,875.2,142.1,884,131.3,884z M-131.3,710c-5.4,0-9.7,4.4-9.7,9.7v144.5
			c0,5.4,4.4,9.7,9.7,9.7h262.5c5.4,0,9.7-4.4,9.7-9.7V719.7c0-5.4-4.4-9.7-9.7-9.7H-131.3z"/>
	</g>
	<g>
		<path fill="#FFFFFF" d="M-109.1,842.1V741.9h29.5l29.5,36.9l29.5-36.9H8.8v100.3h-29.5v-57.5l-29.5,36.9l-29.5-36.9v57.5H-109.1z"
			/>
	</g>
	<g>
		<path fill="#FFFFFF" d="M75.2,842.1L31,793.5h29.5v-51.6H90v51.6h29.5L75.2,842.1z"/>
	</g>
</g>
</svg>
