<?xml version="1.0" encoding="utf-8"?>
<!-- Generator: Adobe Illustrator 21.1.0, SVG Export Plug-In . SVG Version: 6.00 Build 0)  -->
<svg version="1.1" id="Laag_1" xmlns="http://www.w3.org/2000/svg" xmlns:xlink="http://www.w3.org/1999/xlink" x="0px" y="0px"
	 viewBox="0 0 80 80" style="enable-background:new 0 0 80 80;" xml:space="preserve">
<style type="text/css">
	.st0{fill:#FFFFFF;}
</style>
<path class="st0" d="M0,0l80,80V0H0z M66.9,35.7c-5.1,5.1-12.7,6.1-18.8,3.1c-0.7-0.5-0.5-1-0.2-1.3c0.4-0.4,1.6-1.6,3.2-3.1
	c1.1-1.1,1.4-2.1,1.4-2.9c2.9,2.3,6.5,4,10.9-0.4c1.3-1.3,1.8-2.7,1.9-4.3c0.4-0.2,2-0.9,2.9-3.2c0,0-0.7-1.3-4.3-2
	c-0.7-1.2-1.5-2.3-2.5-3.3c-1-1-2.1-1.8-3.3-2.5c-0.7-3.7-2-4.3-2-4.3c-2.2,1-3,2.5-3.2,2.9c-1.5,0.1-3,0.6-4.3,1.9
	c-4.4,4.4-2.7,8.1-0.4,10.9c-0.6,0-1.4,0.2-2.3,0.8c-1-0.4-3.1-1.5-2.4-4.3c0,0,0.5-1.7-0.6-3c0,0-1.1-1.1-0.8,0.6
	c0,0,0.4,1.1-0.4,3c0,0-1.6,2.9,2.3,5.4c-1,1-1.7,1.7-1.9,2c-0.3,0.3-0.9,0.5-1.3-0.2c-3.1-6.1-2-13.7,3.1-18.8
	c6.4-6.4,16.7-6.4,23,0C73.3,19,73.3,29.3,66.9,35.7z"/>
</svg>
