<?xml version="1.0" encoding="utf-8"?>
<!-- Generator: Adobe Illustrator 18.1.1, SVG Export Plug-In . SVG Version: 6.00 Build 0)  -->
<svg version="1.1" id="Laag_1" xmlns="http://www.w3.org/2000/svg" xmlns:xlink="http://www.w3.org/1999/xlink" x="0px" y="0px"
	 viewBox="-256 536 512 512" enable-background="new -256 536 512 512" xml:space="preserve">
<g id="_x31_5">
	<g>
		<path fill="#FFFFFF" d="M-68.3,720.9h3.9c5.9,0,10.6-4.8,10.6-10.6V681v-11c0-5.9-4.8-10.6-10.6-10.6h-3.9
			c-5.9,0-10.6,4.8-10.6,10.6v11v29.3C-78.9,716.1-74.2,720.9-68.3,720.9z"/>
		<path fill="#FFFFFF" d="M67.7,720.5h3.9c5.9,0,10.6-4.8,10.6-10.6v-31.8v-8.3c0-5.9-4.8-10.6-10.6-10.6h-3.9
			c-5.9,0-10.6,4.8-10.6,10.6v8.4V710C57.1,715.8,61.9,720.5,67.7,720.5z"/>
		<path fill="#FFFFFF" d="M118,681H90.8v31.8c0,10.6-8.7,16.5-19.3,16.5h-3.9c-10.6,0-19.3-8.7-19.3-19.3v-29h-93.6v29.3
			c0,10.6-8.7,19.3-19.3,19.3h-3.9c-10.6,0-19.3-8.7-19.3-19.3V681h-29.4c-9.5,0-17.2,7.7-17.2,17.2v208.4c0,9.5,7.7,17.2,17.2,17.2
			h234.9c9.5,0,17.2-7.7,17.2-17.2V698.2C135.3,688.7,127.5,681,118,681z M118,906.6h-234.8V749.3h234.9L118,906.6L118,906.6z"/>
		<path fill="#FFFFFF" d="M9.5,802h31c1.2,0,2.2-1,2.2-2.2v-26.8c0-1.2-1-2.2-2.2-2.2h-31c-1.2,0-2.2,1-2.2,2.2v26.8
			C7.3,801,8.2,802,9.5,802z"/>
		<path fill="#FFFFFF" d="M59.9,802h31c1.2,0,2.2-1,2.2-2.2v-26.8c0-1.2-1-2.2-2.2-2.2h-31c-1.2,0-2.2,1-2.2,2.2v26.8
			C57.7,801,58.7,802,59.9,802z"/>
		<path fill="#FFFFFF" d="M-91.6,845.8h31c1.2,0,2.2-1,2.2-2.2v-26.8c0-1.2-1-2.2-2.2-2.2h-31c-1.2,0-2.2,1-2.2,2.2v26.8
			C-93.8,844.9-92.8,845.8-91.6,845.8z"/>
		<path fill="#FFFFFF" d="M-41,845.8h31c1.2,0,2.2-1,2.2-2.2v-26.8c0-1.2-1-2.2-2.2-2.2h-31c-1.2,0-2.2,1-2.2,2.2v26.8
			C-43.3,844.9-42.2,845.8-41,845.8z"/>
		<path fill="#FFFFFF" d="M9.5,845.8h31c1.2,0,2.2-1,2.2-2.2v-26.8c0-1.2-1-2.2-2.2-2.2h-31c-1.2,0-2.2,1-2.2,2.2v26.8
			C7.3,844.9,8.2,845.8,9.5,845.8z"/>
		<path fill="#FFFFFF" d="M59.9,845.8h31c1.2,0,2.2-1,2.2-2.2v-26.8c0-1.2-1-2.2-2.2-2.2h-31c-1.2,0-2.2,1-2.2,2.2v26.8
			C57.7,844.9,58.7,845.8,59.9,845.8z"/>
		<path fill="#FFFFFF" d="M-60.6,858.5h-31c-1.2,0-2.2,1-2.2,2.2v26.8c0,1.2,1,2.2,2.2,2.2h31c1.2,0,2.2-1,2.2-2.2v-26.8
			C-58.5,859.5-59.4,858.5-60.6,858.5z"/>
		<path fill="#FFFFFF" d="M-10.1,858.5h-31c-1.2,0-2.2,1-2.2,2.2v26.8c0,1.2,1,2.2,2.2,2.2h31c1.2,0,2.2-1,2.2-2.2v-26.8
			C-7.9,859.5-8.8,858.5-10.1,858.5z"/>
		<path fill="#FFFFFF" d="M40.4,858.5h-31c-1.2,0-2.2,1-2.2,2.2v26.8c0,1.2,1,2.2,2.2,2.2h31c1.2,0,2.2-1,2.2-2.2v-26.8
			C42.6,859.5,41.6,858.5,40.4,858.5z"/>
		<path fill="#FFFFFF" d="M90.9,858.5h-31c-1.2,0-2.2,1-2.2,2.2v26.8c0,1.2,1,2.2,2.2,2.2h31c1.2,0,2.2-1,2.2-2.2v-26.8
			C93.1,859.5,92.1,858.5,90.9,858.5z"/>
	</g>
</g>
<g id="_x37_0">
</g>
</svg>
