<?xml version="1.0" encoding="utf-8"?>
<!-- Generator: Adobe Illustrator 18.1.1, SVG Export Plug-In . SVG Version: 6.00 Build 0)  -->
<svg version="1.1" id="Laag_1" xmlns="http://www.w3.org/2000/svg" xmlns:xlink="http://www.w3.org/1999/xlink" x="0px" y="0px"
	 viewBox="-256 536 512 512" enable-background="new -256 536 512 512" xml:space="preserve">
<g>
	<path fill="#FFFFFF" d="M0.5,888h-134.1V698H48.6v97.8c0,2.7,2.2,4.9,4.9,4.9c2.7,0,4.9-2.2,4.9-4.9V693.1c0-2.7-2.2-4.9-4.9-4.9
		h-192c-2.7,0-4.9,2.2-4.9,4.9v199.7c0,2.7,2.2,4.9,4.9,4.9h139c2.7,0,4.9-2.2,4.9-4.9C5.4,890.2,3.2,888,0.5,888z"/>
	<path fill="#FFFFFF" d="M-55.7,722.5c-1.9-1.9-5-1.9-6.9,0l-21.2,21.2l-10.8-10.8c-1.9-1.9-5-1.9-6.9,0c-1.9,1.9-1.9,5,0,6.9
		l14.3,14.3c0.9,1,2.2,1.4,3.5,1.4c1.3,0,2.5-0.5,3.5-1.4l24.7-24.7C-53.8,727.5-53.8,724.4-55.7,722.5z"/>
	<path fill="#FFFFFF" d="M15.2,738.6h-63.6c-2.7,0-4.9,2.2-4.9,4.9c0,2.7,2.2,4.9,4.9,4.9h63.6c2.7,0,4.9-2.2,4.9-4.9
		C20.1,740.8,17.9,738.6,15.2,738.6z"/>
	<path fill="#FFFFFF" d="M-55.7,771.4c-1.9-1.9-5-1.9-6.9,0l-21.2,21.2l-10.8-10.8c-1.9-1.9-5-1.9-6.9,0c-1.9,1.9-1.9,5,0,6.9
		l14.3,14.3c0.9,0.9,2.2,1.4,3.5,1.4c1.3,0,2.5-0.5,3.5-1.4l24.7-24.7C-53.8,776.4-53.8,773.3-55.7,771.4z"/>
	<path fill="#FFFFFF" d="M15.2,787.5h-63.6c-2.7,0-4.9,2.2-4.9,4.9s2.2,4.9,4.9,4.9h63.6c2.7,0,4.9-2.2,4.9-4.9
		S17.9,787.5,15.2,787.5z"/>
	<path fill="#FFFFFF" d="M-62.6,820.3l-21.2,21.2l-10.8-10.8c-1.9-1.9-5-1.9-6.9,0c-1.9,1.9-1.9,5,0,6.9l14.3,14.3
		c0.9,0.9,2.2,1.4,3.5,1.4c1.3,0,2.5-0.5,3.5-1.4l24.7-24.7c1.9-1.9,1.9-5,0-6.9C-57.6,818.4-60.7,818.4-62.6,820.3z"/>
	<path fill="#FFFFFF" d="M15.2,836.4h-63.6c-2.7,0-4.9,2.2-4.9,4.9s2.2,4.9,4.9,4.9h63.6c2.7,0,4.9-2.2,4.9-4.9
		S17.9,836.4,15.2,836.4z"/>
	<path fill="#FFFFFF" d="M108,766.3c-1.9-1.9-5-1.9-6.9,0c-0.9,0.9-1.3,2-1.4,3.1l-9.7,9.7l-3.5-3.4c-1.9-1.9-5-1.8-6.9,0.1
		c-1.9,2-1.8,5,0.1,6.9l3.4,3.2l-50.4,50.4c-0.6,0-1.3,0.1-1.9,0.3c-1.8,0.8-3,2.5-3,4.5v51.6c0,2.7,2.2,4.9,4.9,4.9h52.6
		c0.6,0,1.1-0.1,1.7-0.3c0.2-0.1,0.3-0.1,0.4-0.2c0.4-0.2,0.8-0.4,1.1-0.7c0.1-0.1,0.2-0.1,0.3-0.2l53.5-53.5l4,3.9
		c0.9,0.9,2.2,1.3,3.4,1.3c1.3,0,2.6-0.5,3.5-1.5c1.9-1.9,1.8-5-0.1-6.9l-3.9-3.7l10.7-10.7c1.9-1.9,1.9-5,0-6.9L108,766.3z
		 M118.5,820l-48.9,50.6l-12.9-12.7l50.2-49L118.5,820z M49.6,851l-8.9-8.8l49.4-49.4l9.6,9.2L49.6,851z M52.1,888L38,875.4
		c-0.1-0.1-0.3-0.1-0.4-0.2v-22.2l35.7,35C73.3,888,52.1,888,52.1,888z M85.3,886l-8.7-8.5l49-50.7l9.7,9.3L85.3,886z M111.2,799.4
		c-0.2-0.3-0.4-0.7-0.7-1c-0.4-0.4-0.9-0.7-1.4-0.9l-12.1-11.6l8.4-8.4l44.1,44.1l-7.4,7.4L111.2,799.4z"/>
</g>
</svg>
