<?xml version="1.0" encoding="utf-8"?>
<!-- Generator: Adobe Illustrator 18.1.1, SVG Export Plug-In . SVG Version: 6.00 Build 0)  -->
<svg version="1.1" id="Laag_1" xmlns="http://www.w3.org/2000/svg" xmlns:xlink="http://www.w3.org/1999/xlink" x="0px" y="0px"
	 viewBox="-256 536 512 512" enable-background="new -256 536 512 512" xml:space="preserve">
<g>
	
		<rect x="-104.8" y="856.5" transform="matrix(-0.7072 -0.7071 0.7071 -0.7072 -809.1169 1470.126)" fill="#FFFFFF" width="9.4" height="92.2"/>
	<path fill="#FFFFFF" d="M73.1,709c-4.9-4.9-11.2-7.5-18.2-7.5c-6.8,0-13.3,2.6-18.2,7.5l-68.1,68.2c-3.6,3.6-15.1,17.9-25,31.7
		c-16.9,24.3-20.4,35.5-13.3,42.6l24,23.8c1.5,1.5,4.4,3.5,8.9,3.5c3,0,10.4,0,37-19c12.3-8.7,25-19,28.6-22.6L97,769
		c10-10,10-26.2,0-36.2L73.1,709z M48.1,791.2l-32.7,32.7c-6.9,6.9-39.2,31.2-50.3,35.5l-18.6-18.6c4.3-11.1,28.6-43.4,35.5-50.3
		l32.7-32.7c1.2-1.2,2.9-1.9,4.7-1.9s3.5,0.7,4.7,1.9L48,781.6C50.7,784.3,50.7,788.6,48.1,791.2z"/>
	
		<rect x="95.4" y="682.8" transform="matrix(-0.7071 -0.7071 0.7071 -0.7071 -318.4042 1268.65)" fill="#FFFFFF" width="16.2" height="34.9"/>
	<polygon fill="#FFFFFF" points="112.1,635.8 109.9,665.5 140.6,696.1 170.4,693.9 	"/>
</g>
<g>
	<path fill="#FFFFFF" d="M12.5,678.3c21.6,0,42.2,5.8,60.2,16.7l23-23c-23.8-16.1-52.4-25.5-83.3-25.5
		c-74.8,0-136.8,55.3-147.1,127.3h-20.8l40.5,51.1l40.5-51.1h-28c4.2-23.1,15.3-44.4,32.3-61.3C-48,690.4-18.7,678.3,12.5,678.3z"/>
	<path fill="#FFFFFF" d="M131.9,706.6l-22.8,22.8c13.1,19.2,20.1,41.8,20.1,65.6c0,31.2-12.1,60.5-34.2,82.5
		c-22,22-51.4,34.2-82.5,34.2v31.8c82.1,0,148.6-66.5,148.6-148.6C161.1,761.9,150.2,731.3,131.9,706.6z"/>
</g>
</svg>
