<?xml version="1.0" encoding="utf-8"?>
<!-- Generator: Adobe Illustrator 18.1.1, SVG Export Plug-In . SVG Version: 6.00 Build 0)  -->
<svg version="1.1" id="Laag_1" xmlns="http://www.w3.org/2000/svg" xmlns:xlink="http://www.w3.org/1999/xlink" x="0px" y="0px"
	 viewBox="-256 536 512 512" enable-background="new -256 536 512 512" xml:space="preserve">
<g>
	
		<rect x="-134.2" y="866.1" transform="matrix(0.7072 0.7071 -0.7071 0.7072 613.6857 360.6577)" fill="#FFFFFF" width="11.2" height="110.2"/>
	<path fill="#FFFFFF" d="M78.5,689.8c-5.9-5.9-13.4-9-21.8-9c-8.1,0-15.9,3.1-21.8,9l-81.4,81.5c-4.3,4.3-18,21.4-29.9,37.9
		c-20.2,29-24.4,42.4-15.9,50.9l28.7,28.4c1.8,1.8,5.3,4.2,10.6,4.2c3.6,0,12.4,0,44.2-22.7c14.7-10.4,29.9-22.7,34.2-27l81.5-81.5
		c12-12,12-31.3,0-43.3L78.5,689.8z M48.6,788L9.5,827.1c-8.2,8.2-46.9,37.3-60.1,42.4l-22.2-22.2c5.1-13.3,34.2-51.9,42.4-60.1
		l39.1-39.1c1.4-1.4,3.5-2.3,5.6-2.3s4.2,0.8,5.6,2.3l28.6,28.4C51.7,779.8,51.7,784.9,48.6,788z"/>
	
		<rect x="105.2" y="658.6" transform="matrix(0.7071 0.7071 -0.7071 0.7071 514.064 117.7636)" fill="#FFFFFF" width="19.4" height="41.7"/>
	<polygon fill="#FFFFFF" points="125.1,602.3 122.5,637.8 159.2,674.4 194.8,671.7 	"/>
</g>
</svg>
