<?xml version="1.0" encoding="utf-8"?>
<!-- Generator: Adobe Illustrator 18.1.1, SVG Export Plug-In . SVG Version: 6.00 Build 0)  -->
<svg version="1.1" id="Laag_1" xmlns="http://www.w3.org/2000/svg" xmlns:xlink="http://www.w3.org/1999/xlink" x="0px" y="0px"
	 viewBox="-256 536 512 512" enable-background="new -256 536 512 512" xml:space="preserve">
<g>
	<circle fill="#FFFFFF" stroke="#000000" stroke-miterlimit="10" cx="76.7" cy="718" r="7.8"/>
	<path fill="#FFFFFF" stroke="#000000" stroke-miterlimit="10" d="M109.3,877.3V708.1c0-11.8-9.7-21.5-21.5-21.5H-87.8
		c-11.8,0-21.5,9.7-21.5,21.5v169.2c0,11.8,9.7,21.5,21.5,21.5H87.8C99.6,898.8,109.3,889.2,109.3,877.3z M-93.4,708.1
		c0-3.2,2.5-5.7,5.7-5.7H87.8c3.2,0,5.7,2.5,5.7,5.7v24.2H-93.4L-93.4,708.1L-93.4,708.1z M-93.4,877.3V748.1H93.4v129.2
		c0,3.2-2.5,5.7-5.7,5.7H-87.8C-90.9,883-93.4,880.5-93.4,877.3z"/>
</g>
</svg>
