<?xml version="1.0" encoding="utf-8"?>
<!-- Generator: Adobe Illustrator 18.1.1, SVG Export Plug-In . SVG Version: 6.00 Build 0)  -->
<svg version="1.1" id="Laag_1" xmlns="http://www.w3.org/2000/svg" xmlns:xlink="http://www.w3.org/1999/xlink" x="0px" y="0px"
	 viewBox="-256 536 512 512" enable-background="new -256 536 512 512" xml:space="preserve">
<g>
	<g>
		<path fill="#FFFFFF" d="M129.9,750.6l-97.9-19l-8-48.1c-0.8-4.9-5.4-8.1-10.3-7.3l-141.6,23.6c-4.9,0.8-8.1,5.4-7.3,10.3
			l23.6,141.6c0.8,4.9,5.4,8.1,10.3,7.3l56.8-9.5l-4.2,21.8c-0.9,4.8,2.2,9.5,7.1,10.5l140.9,27.3c4.8,0.9,9.5-2.2,10.5-7.1
			L137,761.1C137.9,756.3,134.8,751.6,129.9,750.6z M-90.3,820.4c-3.7,0.6-7-1-7.5-3.7l-13-77.9c-0.4-2.7,2.2-5.3,5.9-6L2.7,714.9
			c3.7-0.6,7,1,7.5,3.7l1.5,9.1l-22.7-4.4c-4.8-0.9-9.5,2.2-10.5,7.1l-15.7,81.1L-90.3,820.4z M23.2,796.5c0.4,2.7-2.2,5.3-5.9,6
			l-34,5.7l8.2-42.3c0.5-2.7,3.9-4.2,7.6-3.5l19,3.7L23.2,796.5z M96.8,866.6c-0.5,2.7-3.9,4.2-7.6,3.5l-107.1-20.7
			c-2.4-0.5-4.3-1.8-5.2-3.5l63.2-10.5c4.9-0.8,8.1-5.4,7.3-10.3l-9.2-55.2l67.7,13.1c3.7,0.7,6.2,3.4,5.7,6.1L96.8,866.6z"/>
	</g>
</g>
</svg>
