<?xml version="1.0" encoding="utf-8"?>
<!-- Generator: Adobe Illustrator 18.1.1, SVG Export Plug-In . SVG Version: 6.00 Build 0)  -->
<svg version="1.1" id="Laag_1" xmlns="http://www.w3.org/2000/svg" xmlns:xlink="http://www.w3.org/1999/xlink" x="0px" y="0px"
	 viewBox="-256 536 512 512" enable-background="new -256 536 512 512" xml:space="preserve">
<g>
	<g>
		<path fill="#FFFFFF" d="M109.8,726.5l-83.1-16.1l-6.8-40.8c-0.7-4.1-4.6-6.9-8.7-6.2l-120.1,20c-4.1,0.7-6.9,4.6-6.2,8.7l20,120.1
			c0.7,4.1,4.6,6.9,8.7,6.2l48.2-8l-3.6,18.5c-0.8,4.1,1.9,8.1,6,8.9l119.6,23.1c4.1,0.8,8.1-1.9,8.9-6l23.1-119.6
			C116.6,731.3,113.9,727.3,109.8,726.5z M-77.1,785.6c-3.1,0.5-6-0.9-6.4-3.2l-11-66.1c-0.4-2.3,1.9-4.5,5-5l91.3-15.2
			c3.1-0.5,6,0.9,6.4,3.2l1.3,7.7l-19.2-3.7c-4.1-0.8-8.1,1.9-8.9,6L-32,778.1L-77.1,785.6z M19.2,765.4c0.4,2.3-1.8,4.5-5,5
			l-28.9,4.8l6.9-35.9c0.4-2.3,3.3-3.6,6.4-3l16.2,3.1L19.2,765.4z M81.7,824.9c-0.4,2.3-3.3,3.6-6.4,3l-90.8-17.6
			c-2.1-0.4-3.6-1.6-4.4-2.9l53.7-9c4.1-0.7,6.9-4.6,6.2-8.7l-7.8-46.9L89.6,754c3.1,0.6,5.3,2.9,4.9,5.2L81.7,824.9z"/>
	</g>
</g>
<path fill="#FFFFFF" d="M6,948.4c22.4,0,40.6-18.2,40.6-40.6c0-22.4-18.2-40.6-40.6-40.6s-40.6,18.2-40.6,40.6
	C-34.6,930.2-16.4,948.4,6,948.4z M-16.4,901.1c2.7-2.7,7-2.7,9.7,0l8.2,8.2l17.3-17.3c2.7-2.7,7-2.7,9.7,0c2.7,2.7,2.7,7,0,9.7
	L6.3,923.7c-1.3,1.3-3.1,2-4.8,2c-1.8,0-3.5-0.7-4.8-2l-13-13C-19.1,908.1-19.1,903.7-16.4,901.1z"/>
</svg>
