<?xml version="1.0" encoding="utf-8"?>
<!-- Generator: Adobe Illustrator 18.1.1, SVG Export Plug-In . SVG Version: 6.00 Build 0)  -->
<svg version="1.1" id="Laag_1" xmlns="http://www.w3.org/2000/svg" xmlns:xlink="http://www.w3.org/1999/xlink" x="0px" y="0px"
	 viewBox="-256 536 512 512" enable-background="new -256 536 512 512" xml:space="preserve">
<g>
	<path fill="#FFFFFF" d="M1.1,676.8c-63.8,0-115.5,51.7-115.5,115.5S-62.7,907.9,1.1,907.9s115.5-51.7,115.5-115.5
		S64.9,676.8,1.1,676.8z M1.1,886.1c-51.7,0-93.7-42-93.7-93.7c0-51.7,42-93.7,93.7-93.7c51.7,0,93.7,42,93.7,93.7
		C94.8,844.1,52.8,886.1,1.1,886.1z"/>
</g>
<path fill="#FFFFFF" d="M15.4,829.4c0,7.5-6.1,13.6-13.6,13.6l0,0c-7.5,0-13.6-6.1-13.6-13.6v-74c0-7.5,6.1-13.6,13.6-13.6l0,0
	c7.5,0,13.6,6.1,13.6,13.6V829.4z"/>
</svg>
