<?xml version="1.0" encoding="utf-8"?>
<!-- Generator: Adobe Illustrator 18.1.1, SVG Export Plug-In . SVG Version: 6.00 Build 0)  -->
<svg version="1.1" id="Laag_1" xmlns="http://www.w3.org/2000/svg" xmlns:xlink="http://www.w3.org/1999/xlink" x="0px" y="0px"
	 viewBox="-256 536 512 512" enable-background="new -256 536 512 512" xml:space="preserve">
<g id="Current">
	<g>
		<path fill="#FFFFFF" d="M0,632c-88.4,0-160,71.6-160,160S-88.4,952,0,952s160-71.6,160-160S88.4,632,0,632z M15.5,920v-35.1
			c0-8.5-6.9-15.5-15.5-15.5s-15.5,6.9-15.5,15.5V920c-58.8-7.1-105.5-53.8-112.5-112.5h35.1c8.6,0,15.5-6.9,15.5-15.5
			c0-8.5-6.9-15.5-15.5-15.5H-128c7.1-58.8,53.7-105.5,112.5-112.5v35.1c0,8.5,6.9,15.5,15.5,15.5s15.5-6.9,15.5-15.5V664
			c58.8,7.1,105.5,53.8,112.5,112.5H92.9c-8.6,0-15.5,6.9-15.5,15.5c0,8.5,6.9,15.5,15.5,15.5H128C120.9,866.3,74.3,912.9,15.5,920z
			"/>
	</g>
</g>
</svg>
