<?xml version="1.0" encoding="utf-8"?>
<!-- Generator: Adobe Illustrator 25.1.0, SVG Export Plug-In . SVG Version: 6.00 Build 0)  -->
<svg version="1.1" id="Laag_1" xmlns="http://www.w3.org/2000/svg" xmlns:xlink="http://www.w3.org/1999/xlink" x="0px" y="0px"
	 viewBox="0 0 512 512" style="enable-background:new 0 0 512 512;" xml:space="preserve">
<style type="text/css">
	.st0{fill:#FFFFFF;}
</style>
<g>
	<g>
		<path class="st0" d="M296.3,133.6H279c-3.3-9.3-12.1-15.9-22.5-15.9c-10.4,0-19.2,6.7-22.5,15.9h-17.3c-4.4,0-8,3.6-8,8v31.8
			c0,4.4,3.6,8,8,8h79.6c4.4,0,8-3.6,8-8v-31.8C304.2,137.1,300.7,133.6,296.3,133.6z"/>
	</g>
</g>
<g>
	<g>
		<path class="st0" d="M336.1,149.5h-15.9v23.9c0,13.2-10.7,23.9-23.9,23.9h-79.6c-13.2,0-23.9-10.7-23.9-23.9v-23.9h-15.9
			c-8.8,0-15.9,7.1-15.9,15.9v191c0,8.9,7,15.9,15.9,15.9h159.2c8.9,0,15.9-7,15.9-15.9v-191C352,156.5,345,149.5,336.1,149.5z
			 M254.2,290.4l-31.8,31.8c-1.6,1.5-3.6,2.3-5.6,2.3c-2,0-4.1-0.8-5.6-2.3l-15.9-15.9c-3.1-3.1-3.1-8.1,0-11.3
			c3.1-3.1,8.1-3.1,11.3,0l10.3,10.3l26.2-26.2c3.1-3.1,8.1-3.1,11.3,0C257.3,282.3,257.3,287.3,254.2,290.4z M254.2,226.8
			l-31.8,31.8c-1.6,1.5-3.6,2.3-5.6,2.3c-2,0-4.1-0.8-5.6-2.3l-15.9-15.9c-3.1-3.1-3.1-8.1,0-11.3c3.1-3.1,8.1-3.1,11.3,0l10.3,10.3
			l26.2-26.2c3.1-3.1,8.1-3.1,11.3,0C257.3,218.6,257.3,223.6,254.2,226.8z M312.2,308.7h-31.8c-4.4,0-8-3.6-8-8s3.6-8,8-8h31.8
			c4.4,0,8,3.6,8,8S316.6,308.7,312.2,308.7z M312.2,245h-31.8c-4.4,0-8-3.6-8-8c0-4.4,3.6-8,8-8h31.8c4.4,0,8,3.6,8,8
			C320.2,241.4,316.6,245,312.2,245z"/>
	</g>
</g>
</svg>
