<?xml version="1.0" encoding="utf-8"?>
<!-- Generator: Adobe Illustrator 18.1.1, SVG Export Plug-In . SVG Version: 6.00 Build 0)  -->
<svg version="1.1"
	 id="svg2" sodipodi:docname="sheep.svg" sodipodi:version="0.32" sodipodi:docbase="/home/the_structorr/Grafika/svg" inkscape:version="0.42" xmlns:svg="http://www.w3.org/2000/svg" xmlns:rdf="http://www.w3.org/1999/02/22-rdf-syntax-ns#" xmlns:dc="http://purl.org/dc/elements/1.1/" xmlns:cc="http://web.resource.org/cc/" xmlns:inkscape="http://www.inkscape.org/namespaces/inkscape" xmlns:sodipodi="http://inkscape.sourceforge.net/DTD/sodipodi-0.dtd"
	 xmlns="http://www.w3.org/2000/svg" xmlns:xlink="http://www.w3.org/1999/xlink" x="0px" y="0px" viewBox="-5 7 500 500"
	 enable-background="new -5 7 500 500" xml:space="preserve">
<sodipodi:namedview  inkscape:window-y="54" inkscape:document-units="px" inkscape:window-x="36" inkscape:window-height="513" inkscape:window-width="750" inkscape:pageopacity="0.0" inkscape:current-layer="layer1" inkscape:pageshadow="2" inkscape:zoom="0.68800000" id="base" borderopacity="1.0" bordercolor="#666666" inkscape:cy="250.00000" pagecolor="#ffffff" inkscape:cx="250.00000">
	</sodipodi:namedview>
<g>
	<g>
		<path fill="#FFFFFF" d="M352,191c-0.3-13.9-12.3-25.2-26.7-25.2c-0.2,0-0.4,0-0.6,0c0,0-0.1,0-0.1,0l-5.8,0.2l-1.2-5.2
			c-2.7-11.6-13.7-20-26.1-20c-0.2,0-0.4,0-0.6,0c-4.2,0.1-8.3,1.1-12,3l-5.8,3l-3-5.8c-4.6-8.8-13.7-14.2-23.9-14.2
			c-0.2,0-0.4,0-0.6,0l-0.1,0l-0.1,0c-10.5-0.2-19.9,5.3-24.6,14.2l-3,5.8l-5.8-3c-3.7-1.9-7.8-2.9-12-3c-0.2,0-0.4,0-0.6,0
			c-12.4,0-23.4,8.4-26.1,20l-1.2,5.2l-6-0.2c-0.1,0-0.4,0-0.6,0c-14.5,0-26.4,11.3-26.7,25.1c-0.1,6.3,2.1,12.4,6.4,17.2l7.8,8.8
			c0.7,0.8,1.8,1.3,2.9,1.3h0.4c0.6,0,5.7,0.2,6.6,6.1c0.1,0.4,0.1,0.9,0.2,1.5c6.1,42,14.8,71.9,21,89.6
			c11.5,32.9,31.5,72.1,61.5,72.1c29.9,0,50-39.2,61.5-72.1c6.2-17.7,14.9-47.7,21-89.6c0.1-0.7,0.2-1.2,0.2-1.6
			c0.9-5.9,6-6.1,6.6-6.1h0.4c1.1,0,2.1-0.5,2.9-1.3l7.8-8.8C349.8,203.4,352.1,197.3,352,191z"/>
		<path fill="#FFFFFF" d="M145.3,218.1l-3.8,0.9c-12.7,2.9-37,16.6-51.5,42.4c-5.5,9.7-3.9,21.1-0.1,27.5c2.8,4.8,6.7,7.4,11.1,7.4
			c6.3,0,13.7-5.1,21-14.4c10-12.7,19.4-32.5,27.8-58.9c0.4-1.3,0.1-2.7-0.8-3.7C148,218.2,146.6,217.8,145.3,218.1z"/>
		<path fill="#FFFFFF" d="M400.5,261.3c-14.5-25.8-38.8-39.5-51.5-42.4l-3.8-0.9c-1.3-0.3-2.7,0.1-3.7,1.1c-0.9,1-1.2,2.4-0.8,3.7
			c8.5,26.3,17.8,46.1,27.8,58.9c7.3,9.3,14.7,14.4,21,14.4h0c4.4,0,8.3-2.6,11.1-7.4C404.4,282.4,406,271.1,400.5,261.3z"/>
	</g>
</g>
</svg>
