<?xml version="1.0" encoding="utf-8"?>
<!-- Generator: Adobe Illustrator 18.1.1, SVG Export Plug-In . SVG Version: 6.00 Build 0)  -->
<svg version="1.1" id="Laag_1" xmlns="http://www.w3.org/2000/svg" xmlns:xlink="http://www.w3.org/1999/xlink" x="0px" y="0px"
	 viewBox="0 0 512 512" enable-background="new 0 0 512 512" xml:space="preserve">
<g>
	<path fill="#FFFFFF" d="M357.3,162.3h-8.9v7.6c0,13.4-10.1,24.2-22.6,24.2c-12.4,0-22.6-10.9-22.6-24.2v-7.6h-25.4v7.6
		c0,13.4-10.1,24.2-22.6,24.2c-12.4,0-22.6-10.9-22.6-24.2v-7.6h-25.4v7.6c0,13.4-10.1,24.2-22.6,24.2c-12.4,0-22.6-10.9-22.6-24.2
		v-7.6h-8.9c-16.7,0-30.3,14.6-30.3,32.5v161.4c0,18,13.6,32.5,30.3,32.5H357c16.7,0,30.3-14.6,30.3-32.5V194.9
		C387.6,176.9,374,162.3,357.3,162.3L357.3,162.3z M366.7,351.2c0,9-6.8,16.4-15.3,16.4H159.3c-8.4,0-15.3-7.3-15.3-16.4V232.4
		c0-9,6.8-16.4,15.3-16.4h192.2c8.4,0,15.3,7.3,15.3,16.4L366.7,351.2L366.7,351.2z"/>
	<path fill="#FFFFFF" d="M340.6,229.5h-29.5c-4.4,0-8,3.9-8,8.7v31.6c0,4.8,3.6,8.7,8,8.7h29.5c4.5,0,8.1-3.9,8.1-8.7v-31.6
		C348.7,233.4,345.1,229.5,340.6,229.5L340.6,229.5z"/>
	<path fill="#FFFFFF" d="M199.5,229.5H170c-4.4,0-8.1,3.9-8.1,8.7v31.6c0,4.8,3.6,8.7,8.1,8.7h29.5c4.5,0,8.1-3.9,8.1-8.7v-31.6
		C207.6,233.4,204,229.5,199.5,229.5L199.5,229.5z"/>
	<path fill="#FFFFFF" d="M199.5,305.3H170c-4.4,0-8.1,3.9-8.1,8.7v31.6c0,4.8,3.6,8.7,8.1,8.7h29.5c4.5,0,8.1-3.9,8.1-8.7V314
		C207.6,309.1,204,305.3,199.5,305.3L199.5,305.3z"/>
	<path fill="#FFFFFF" d="M270.1,305.3h-29.4c-4.4,0-8.1,3.9-8.1,8.7v31.6c0,4.8,3.6,8.7,8.1,8.7h29.4c4.5,0,8.1-3.9,8.1-8.7V314
		C278.1,309.1,274.5,305.3,270.1,305.3L270.1,305.3z"/>
	<path fill="#FFFFFF" d="M340.6,305.3h-29.5c-4.4,0-8,3.9-8,8.7v31.6c0,4.8,3.6,8.7,8,8.7h29.5c4.5,0,8.1-3.9,8.1-8.7V314
		C348.7,309.1,345.1,305.3,340.6,305.3L340.6,305.3z"/>
	<g>
		<g>
			<path fill="#FFFFFF" d="M279.9,266.8c-0.6-0.8-1.2-1.5-1.8-2.3v-6.8c3.9-4.2,8.1-8.6,12.7-13.3c3.9-4,5.1-9.8,3.2-15.1
				c-2-5.5-7.1-9.2-12.5-9.2c-3.3,0-6.5,1.4-9,3.9c-1.9,1.9-3.6,3.7-5.3,5.5h-22c-0.4-0.3-0.7-0.6-1.1-0.9c-2.2-1.6-4.7-2.5-7.3-2.5
				c-5.6,0-10.6,4.1-12.3,10.2c-1.8,6.2,0.3,12.5,5.2,16.1c1,0.7,2,1.6,3,2.4v14.8c-0.5,0.6-1,1.3-1.4,1.9
				c-3.2,4.4-3.8,10.3-1.5,15.4c2.3,5,6.9,8.3,11.8,8.3c3.8,0,7.3-1.9,9.8-5.3c1.9-2.6,3.9-5.2,6.1-8c1,1.3,1.9,2.5,2.9,3.8
				c4.7,6.1,9.5,12.4,14.7,18.3c2.5,2.9,5.8,4.5,9.4,4.5c5.2,0,10.1-3.6,12.2-8.8c2.1-5.2,1.1-11.1-2.5-15.3
				C289.2,278.7,284.5,272.7,279.9,266.8L279.9,266.8z M284.4,299c-1,0-2-0.4-2.9-1.5c-8.4-9.6-15.9-20.2-23.9-30.1
				c-4.5,5.4-9,10.9-13.2,16.7c-0.8,1.2-1.9,1.7-2.8,1.7c-3.1,0-6-4.8-3.4-8.3c4.3-5.9,8.8-11.5,13.4-17
				c-5.2-5.8-10.7-11.2-16.9-15.8c-3.9-2.8-1.5-9,2.1-9c0.7,0,1.5,0.3,2.3,0.8c6.8,5,12.7,10.8,18.3,17.1
				c6.8-7.8,13.9-15.3,21.2-22.7c0.9-0.9,1.9-1.3,2.9-1.3c3.4,0,6.5,4.8,3.3,8c-7.3,7.5-14.5,15.1-21.4,23
				c8.2,10,15.8,20.6,24.3,30.3C290.6,294.2,287.6,299,284.4,299L284.4,299z"/>
		</g>
		<g>
			<path fill="#FFFFFF" d="M184.8,184.6c7.6,0,13.7-6.6,13.7-14.8v-31.3c0-8.1-6.1-14.8-13.7-14.8c-7.6,0-13.7,6.6-13.7,14.8v31.3
				C171.1,178,177.2,184.6,184.8,184.6L184.8,184.6z"/>
		</g>
		<g>
			<path fill="#FFFFFF" d="M325.9,184.6c7.6,0,13.7-6.6,13.7-14.8v-31.3c0-8.1-6.1-14.8-13.7-14.8s-13.7,6.6-13.7,14.8v31.3
				C312.1,178,318.3,184.6,325.9,184.6L325.9,184.6z"/>
		</g>
		<g>
			<path fill="#FFFFFF" d="M255.3,184.6c7.6,0,13.7-6.6,13.7-14.8v-31.3c0-8.1-6.1-14.8-13.7-14.8c-7.6,0-13.7,6.6-13.7,14.8v31.3
				C241.6,178,247.8,184.6,255.3,184.6L255.3,184.6z"/>
		</g>
	</g>
</g>
</svg>
