<?xml version="1.0" encoding="utf-8"?>
<!-- Generator: Adobe Illustrator 25.1.0, SVG Export Plug-In . SVG Version: 6.00 Build 0)  -->
<svg version="1.1" id="Laag_1" xmlns="http://www.w3.org/2000/svg" xmlns:xlink="http://www.w3.org/1999/xlink" x="0px" y="0px"
	 viewBox="0 0 512 512" style="enable-background:new 0 0 512 512;" xml:space="preserve">
<style type="text/css">
	.st0{fill:#FFFFFF;}
</style>
<g>
	<g>
		<path class="st0" d="M356.8,160.6h-12.1v-12.1c0-7.3-4.8-12.1-12.1-12.1c-7.3,0-12.1,4.8-12.1,12.1v12.1h-121v-12.1
			c0-7.3-4.8-12.1-12.1-12.1c-7.3,0-12.1,4.8-12.1,12.1v12.1h-24.2c-6,0-12.1,4.8-12.1,12.1v169.4c0,7.3,6,12.1,12.1,12.1H225
			c-8.5-14.5-13.3-31.5-13.3-48.4c0-53.2,43.5-96.8,96.8-96.8c23,0,43.5,8.5,60.5,21.8v-58.1C368.9,166.7,362.9,160.6,356.8,160.6z"
			/>
	</g>
</g>
<g>
	<g>
		<path class="st0" d="M308.4,233.2c-39.9,0-72.6,32.7-72.6,72.6s32.7,72.6,72.6,72.6s72.6-32.7,72.6-72.6S348.3,233.2,308.4,233.2z
			 M332.6,317.9h-24.2c-7.3,0-12.1-4.8-12.1-12.1v-36.3c0-7.3,4.8-12.1,12.1-12.1c7.3,0,12.1,4.8,12.1,12.1v24.2h12.1
			c7.3,0,12.1,4.8,12.1,12.1S339.9,317.9,332.6,317.9z"/>
	</g>
</g>
</svg>
