<?xml version="1.0" encoding="utf-8"?>
<!-- Generator: Adobe Illustrator 18.1.0, SVG Export Plug-In . SVG Version: 6.00 Build 0)  -->
<!DOCTYPE svg PUBLIC "-//W3C//DTD SVG 1.1//EN" "http://www.w3.org/Graphics/SVG/1.1/DTD/svg11.dtd">
<svg version="1.1" id="Capa_1" xmlns="http://www.w3.org/2000/svg" xmlns:xlink="http://www.w3.org/1999/xlink" x="0px" y="0px"
	 width="512px" height="512px" viewBox="-595 443 512 512" enable-background="new -595 443 512 512" xml:space="preserve">
<g id="Settings_1_">
	<g>
		<path fill="#FFFFFF" d="M-207.6,668.4c0-14.4-9.2-26.7-22-31.1c0.4-1.2,0.7-2.5,0.7-3.9v-45c0-6.2-4.9-11.2-11-11.2
			c-6.1,0-11,5-11,11.2v45c0,1.4,0.3,2.7,0.7,3.9c-12.8,4.4-22,16.6-22,31.1c0,14.8,9.7,27.3,23,31.4c-1,1.7-1.7,3.7-1.7,5.9v112
			c0,6.2,4.9,11.2,11,11.2s11-5,11-11.2v-112c0-2.2-0.6-4.2-1.7-5.9C-217.2,695.7-207.6,683.2-207.6,668.4z M-239.8,690
			c-11.7,0-21.3-9.7-21.3-21.6c0-11.9,9.6-21.6,21.3-21.6s21.3,9.7,21.3,21.6C-218.5,680.3-228.1,690-239.8,690z M-327.1,693.1
			c0.4-1.2,0.7-2.5,0.7-3.9V588.4c0-6.2-4.9-11.2-11-11.2c-6.1,0-11,5-11,11.2v100.8c0,1.4,0.3,2.7,0.7,3.9
			c-12.8,4.4-22,16.6-22,31.1c0,14.8,9.7,27.3,23,31.4c-1,1.7-1.7,3.7-1.7,5.9v56.2c0,6.2,4.9,11.2,11,11.2c6.1,0,11-5,11-11.2
			v-56.2c0-2.2-0.6-4.2-1.7-5.9c13.3-4.1,23-16.6,23-31.4C-305.1,709.8-314.3,697.5-327.1,693.1z M-337.4,745.8
			c-11.7,0-21.3-9.7-21.3-21.6c0-11.9,9.5-21.6,21.3-21.6c11.7,0,21.3,9.7,21.3,21.6C-316.1,736.1-325.6,745.8-337.4,745.8z
			 M-424.6,637.3c0.4-1.2,0.7-2.5,0.7-3.9v-45c0-6.2-4.9-11.2-11-11.2s-11,5-11,11.2v45c0,1.4,0.3,2.6,0.7,3.9
			c-12.8,4.4-22,16.6-22,31.1c0,14.8,9.7,27.3,23,31.4c-1,1.7-1.7,3.7-1.7,5.9v112c0,6.2,4.9,11.2,11,11.2s11-5,11-11.2v-112
			c0-2.2-0.6-4.2-1.7-5.9c13.3-4.1,23-16.6,23-31.4C-402.6,653.9-411.9,641.7-424.6,637.3z M-434.9,690c-11.7,0-21.3-9.7-21.3-21.6
			c0-11.9,9.5-21.6,21.3-21.6c11.7,0,21.3,9.7,21.3,21.6C-413.6,680.3-423.2,690-434.9,690z"/>
	</g>
</g>
</svg>
