<?xml version="1.0" encoding="utf-8"?>
<!-- Generator: Adobe Illustrator 18.1.1, SVG Export Plug-In . SVG Version: 6.00 Build 0)  -->
<svg version="1.1" id="Laag_1" xmlns="http://www.w3.org/2000/svg" xmlns:xlink="http://www.w3.org/1999/xlink" x="0px" y="0px"
	 viewBox="-256 536 512 512" enable-background="new -256 536 512 512" xml:space="preserve">
<g id="Current">
	<g>
		<path fill="#FFFFFF" d="M0.6,676.5c-64.2,0-116.1,52-116.1,116.1s52,116.1,116.1,116.1s116.1-52,116.1-116.1S64.7,676.5,0.6,676.5
			z M11.8,885.5V860c0-6.2-5-11.2-11.2-11.2s-11.2,5-11.2,11.2v25.5c-42.7-5.2-76.6-39-81.6-81.6h25.5c6.2,0,11.2-5,11.2-11.2
			c0-6.2-5-11.2-11.2-11.2h-25.5c5.2-42.7,39-76.6,81.6-81.6v25.5c0,6.2,5,11.2,11.2,11.2s11.2-5,11.2-11.2v-25.5
			c42.7,5.2,76.6,39,81.6,81.6H68c-6.2,0-11.2,5-11.2,11.2c0,6.2,5,11.2,11.2,11.2h25.5C88.3,846.5,54.5,880.3,11.8,885.5z"/>
	</g>
</g>
</svg>
