<?xml version="1.0" encoding="utf-8"?>
<!-- Generator: Adobe Illustrator 18.1.1, SVG Export Plug-In . SVG Version: 6.00 Build 0)  -->
<svg version="1.1" id="Laag_1" xmlns="http://www.w3.org/2000/svg" xmlns:xlink="http://www.w3.org/1999/xlink" x="0px" y="0px"
	 viewBox="-256 536 512 512" enable-background="new -256 536 512 512" xml:space="preserve">
<g>
	<g>
		<path fill="#FFFFFF" d="M-106.9,754.8c3.4,1.8,10.4,0.9,15.3,0.9H94.7c5.2,0,10.9,0.4,14-1.7c4.1-2.9,3.1-11.4,3-18.3
			c-6.8-7.1-17.8-10.5-27-15.3c-18-9.4-36.6-17.9-54.9-27.4c-6.5-3.4-13.3-6.5-20.1-10c-3.1-1.6-6.3-4.5-10.5-4.8
			c-2.4,2.4-6.5,3.2-9.6,4.8c-7.4,3.8-15.1,7.4-22.7,11.3c-25.5,13.3-52.9,25.1-77.5,39.6C-112.2,740.9-112.3,752-106.9,754.8z
			 M-51.2,858.4v-77.1c4.9-0.6,5.4-3,8.3-5.2c0.2-3.7,0.5-8.3,0.4-12.7h-51.8c-0.2,8.2-0.7,15.3,5.7,17c0.7,0.6,1.9,0.7,3.1,0.9
			v77.1H-51.2L-51.2,858.4z M17.6,858.4v-77.1c1.1-0.2,2-0.3,3-0.4c5.8-5.4,5.9-6.2,5.7-17.5H-26c-0.2,7.8-0.3,15.3,5.7,17
			c0.7,0.6,1.9,0.7,3.1,0.9v77.1H17.6z M85.9,858.4v-77.1c1.1-0.2,2-0.3,3-0.4c6.3-5.8,5.9-5.3,5.7-17.5H42.8
			c-0.1,2.9-0.8,8.9,0.4,10.9c0.2,3.2,2.4,5.4,5.2,6.1c0.7,0.6,1.9,0.7,3.1,0.9v77.1H85.9z M111.6,883.7c0-5.7,0.6-11.9-2.2-14.8
			c-2.5-2.5-7.5-2.2-12.6-2.2h-202c-1.6,1.3-3.6,2.8-5.2,3.9c-1.5,6.7-1,16.7-0.9,24.8c1.9,2.1,2.4,4.3,5.7,5.2
			c2.2,1.4,12.6,0.4,16.1,0.4H106c2.1-1.9,4.3-2.4,5.2-5.7C112.6,893.3,111.6,886.8,111.6,883.7z"/>
	</g>
</g>
</svg>
