<?xml version="1.0" encoding="utf-8"?>
<!-- Generator: Adobe Illustrator 18.1.1, SVG Export Plug-In . SVG Version: 6.00 Build 0)  -->
<svg version="1.1" id="Laag_1" xmlns="http://www.w3.org/2000/svg" xmlns:xlink="http://www.w3.org/1999/xlink" x="0px" y="0px"
	 viewBox="-256 536 512 512" enable-background="new -256 536 512 512" xml:space="preserve">
<path id="path3970" fill="#FFFFFF" d="M109.3,842.7H67.6V731.9l36.5-36c3.4-3.4,3.5-8.9,0.1-12.3c-3.4-3.4-8.9-3.5-12.3-0.1
	l-33.6,33.2H-56.2v-32.9c0-4.8-3.9-8.7-8.7-8.7c-4.8,0-8.7,3.9-8.7,8.7v32.9h-35.2c-4.8,0-8.7,3.9-8.7,8.7s3.9,8.7,8.7,8.7h35.2
	v117.3c0,4.8,3.9,8.7,8.7,8.7h115v39.4c0,4.8,3.9,8.7,8.7,8.7s8.7-3.9,8.7-8.7v-39.4h41.7c4.8,0,8.7-3.9,8.7-8.7
	S114.1,842.7,109.3,842.7L109.3,842.7z M40.5,734.1l-96.6,95.3v-95.3H40.5L40.5,734.1z M-44.7,842.7l94.8-93.6v93.6H-44.7z"/>
</svg>
