<?xml version="1.0" encoding="utf-8"?>
<!-- Generator: Adobe Illustrator 19.1.0, SVG Export Plug-In . SVG Version: 6.00 Build 0)  -->
<!DOCTYPE svg PUBLIC "-//W3C//DTD SVG 1.1//EN" "http://www.w3.org/Graphics/SVG/1.1/DTD/svg11.dtd">
<svg version="1.1" id="Capa_1" xmlns="http://www.w3.org/2000/svg" xmlns:xlink="http://www.w3.org/1999/xlink" x="0px" y="0px"
	 width="512px" height="512px" viewBox="-34 36.7 512 512" style="enable-background:new -34 36.7 512 512;" xml:space="preserve">
<style type="text/css">
	.st0{fill:#FFFFFF;}
</style>
<g>
	<path class="st0" d="M141.6,371h66.3c8.3,0,15-6.7,15-15v-27.6c0-8.3-6.7-15-15-15h-66.3c-8.3,0-15,6.7-15,15V356
		C126.6,364.3,133.3,371,141.6,371z"/>
	<path class="st0" d="M86,382.6c-8.3,0-15,6.7-15,15v27.6c0,8.3,6.7,15,15,15h66.3c8.3,0,15-6.7,15-15v-27.6c0-8.3-6.7-15-15-15H86z
		"/>
	<path class="st0" d="M182.1,397.6v27.6c0,8.3,6.7,15,15,15h66.3c8.3,0,15-6.7,15-15v-27.6c0-8.3-6.7-15-15-15h-66.3
		C188.8,382.6,182.1,389.3,182.1,397.6z"/>
	<path class="st0" d="M368.5,145.4l-14.1-6.6c-3.4-1.6-7.2-1.7-10.7-0.5c-3.5,1.3-6.3,3.8-7.9,7.2l-22.1,47.3
		c-2.9,6.3-0.8,13.7,4.8,17.5L294,262.7l-26.7-12.5c-3.1-1.5-6.5-1.7-9.6-0.5c-3.8,1.4-6.6,4.6-7.7,8.8l-13,53
		c-1.4,5.7-1,14.5,0.8,20.1l10.1,30.2c1.2,3.5,3.7,6.3,7,7.9c3.3,1.6,7,1.8,10.5,0.5l30-11.7c5.5-2.1,12.4-7.5,15.9-12.2l32.3-44
		c2.3-3.1,3.1-6.9,2.2-10.4s-3.4-6.5-6.9-8.1l-26.7-12.5l24.5-52.4c2.8,0.8,5.8,0.7,8.6-0.3c3.5-1.3,6.3-3.8,7.9-7.2l22.1-47.3
		c1.6-3.4,1.7-7.2,0.5-10.7C374.4,149.8,371.9,146.9,368.5,145.4z M320.2,302.1c-0.1,5.3-7.4,9.6-10.3,15.2
		c-2.5,4.8-1.3,13.1-5.7,17.4c-4.4,4.3-12.6,2.7-17.6,5c-5.7,2.7-10.2,9.8-15.5,9.7c-6.2-0.1-9.6-7.2-13.6-11.3
		c-4-4.1-10.9-7.7-10.8-14c0.1-5.3,7.4-9.6,10.3-15.2c2.5-4.8,1.3-13.1,5.7-17.4c4.4-4.3,12.6-2.7,17.6-5c5.7-2.7,10.2-9.8,15.5-9.7
		c6.2,0.1,9.6,7.2,13.6,11.3C313.4,292.3,320.3,295.9,320.2,302.1z"/>
</g>
</svg>
