<?xml version="1.0" encoding="utf-8"?>
<!-- Generator: Adobe Illustrator 18.1.1, SVG Export Plug-In . SVG Version: 6.00 Build 0)  -->
<svg version="1.1" id="Laag_1" xmlns="http://www.w3.org/2000/svg" xmlns:xlink="http://www.w3.org/1999/xlink" x="0px" y="0px"
	 viewBox="-256 536 512 512" enable-background="new -256 536 512 512" xml:space="preserve">
<g>
	<path fill="#FFFFFF" d="M-49.2,847.9L20,813.3L54.7,744l-69.3,34.6L-49.2,847.9z M8.3,812.3c-14.7,7.3-29.3,14.7-44,22
		c7.3-14.7,14.7-29.3,22-44C-6.4,797.7,0.9,805,8.3,812.3z"/>
	<path fill="#FFFFFF" d="M0.1,676.7c-63.7,0-115.3,51.6-115.3,115.3c0,63.7,51.6,115.3,115.3,115.3S115.4,855.7,115.4,792
		C115.4,728.3,63.8,676.7,0.1,676.7z M29.7,877c-44,17.6-98.2-9.8-114.1-53.9C-107,770.5-63,704.2-6.3,702.3l0,0l1.1,0l1.6,0
		c42.6-3.4,82.6,29.1,91.5,70.2C99.4,815.7,71.1,862.8,29.7,877z"/>
</g>
</svg>
