<?xml version="1.0" encoding="utf-8"?>
<!-- Generator: Adobe Illustrator 19.1.0, SVG Export Plug-In . SVG Version: 6.00 Build 0)  -->
<!DOCTYPE svg PUBLIC "-//W3C//DTD SVG 1.1//EN" "http://www.w3.org/Graphics/SVG/1.1/DTD/svg11.dtd">
<svg version="1.1" id="Capa_1" xmlns="http://www.w3.org/2000/svg" xmlns:xlink="http://www.w3.org/1999/xlink" x="0px" y="0px"
	 width="512px" height="512px" viewBox="-51 52.4 512 512" style="enable-background:new -51 52.4 512 512;" xml:space="preserve">
<style type="text/css">
	.st0{fill:#FFFFFF;}
</style>
<g>
	<path class="st0" d="M306.3,199.8C306.3,199.8,306.3,199.8,306.3,199.8H121.6c-8.6,0-15.6,7-15.6,15.6v165.7h0.1
		c0.3,2.7,2.4,4.8,5.1,4.8c2.7,0,4.9-2.1,5.1-4.8h0.1V215.4c0-2.9,2.3-5.2,5.2-5.2h159c2.9,0,5.2,2.3,5.2,5.2v200.9
		c0,2.9-2.3,5.2-5.2,5.2h-20.7c-1.9-0.8-9.5-4.5-9.5-10.1c0-6.5,10-10.5,10.1-10.5c2.3-0.9,3.7-3.3,3.3-5.8
		c-0.5-2.5-2.6-4.3-5.1-4.3h-147c-11.3,0-20.4,9.2-20.4,20.4c0,11.3,9.2,20.4,20.4,20.4h141.4c0,0,0,0.1,0,0.1h27.7
		c8.6,0,15.6-7,15.6-15.6v-199c0.1-7.3,9-7.1,10-7.1h0c4.4,0,8,3.6,8,8c0,4.4-3.6,8-8,8c-2.9,0-5.2,2.3-5.2,5.2
		c0,2.9,2.3,5.2,5.2,5.2c10.1,0,18.3-8.2,18.3-18.3C324.5,208,316.3,199.8,306.3,199.8z M243.1,421.3H111.5
		c-5.5,0-10.1-4.5-10.1-10.1c0-5.5,4.5-10.1,10.1-10.1h131.7c-2,2.8-3.3,6.2-3.3,10.2C239.9,415.3,241.2,418.6,243.1,421.3z"/>
</g>
</svg>
