<?xml version="1.0" encoding="utf-8"?>
<!-- Generator: Adobe Illustrator 18.1.1, SVG Export Plug-In . SVG Version: 6.00 Build 0)  -->
<svg version="1.1" id="Laag_1" xmlns="http://www.w3.org/2000/svg" xmlns:xlink="http://www.w3.org/1999/xlink" x="0px" y="0px"
	 viewBox="-256 536 512 512" enable-background="new -256 536 512 512" xml:space="preserve">
<g id="g3780" transform="matrix(2.2062622,0,0,2.2062622,-2595.7337,-810.17102)">
	<path id="path3782" fill="#FFFFFF" d="M1225.9,773.6h-80.2c-4.1,0-7.4-3.3-7.4-7.4v-27.9l-21.2-12.2l21.2-12.2V686
		c0-4.1,3.3-7.4,7.4-7.4h80.2c4.1,0,7.4,3.3,7.4,7.4v80.2C1233.3,770.3,1230,773.6,1225.9,773.6z M1130.5,726.1l16.7,9.6v26.1
		c0,1.6,1.3,2.9,2.9,2.9h71.5c1.6,0,2.9-1.3,2.9-2.9v-71.5c0-1.6-1.3-2.9-2.9-2.9h-71.5c-1.6,0-2.9,1.3-2.9,2.9v26.1L1130.5,726.1z"
		/>
</g>
</svg>
