<?xml version="1.0" encoding="utf-8"?>
<!-- Generator: Adobe Illustrator 18.1.1, SVG Export Plug-In . SVG Version: 6.00 Build 0)  -->
<svg version="1.1" id="Laag_1" xmlns="http://www.w3.org/2000/svg" xmlns:xlink="http://www.w3.org/1999/xlink" x="0px" y="0px"
	 viewBox="-256 536 512 512" enable-background="new -256 536 512 512" xml:space="preserve">
<path id="path3727" fill="#FFFFFF" d="M125.8,894.7L23,791.9c-4.5-4.5-11-6-16.7-4.3c11.8-13.6,18.9-31.4,18.9-50.8
	c0-42.9-34.9-77.8-77.8-77.8s-77.8,34.9-77.8,77.8c0,44.2,34.2,77.8,77.8,77.8c18,0,34.5-6.1,47.7-16.4c-2.1,5.9-0.8,12.8,4,17.6
	l102.8,102.8c6.6,6.6,17.3,6.6,24,0C132.4,912.1,132.4,901.3,125.8,894.7L125.8,894.7z M-84.3,756.1h-17.9l9-24.8L-84.3,756.1z
	 M-105.1,778.2h29l8.6,23.8C-82.6,798.6-95.8,790-105.1,778.2z M-40.9,802.7l-40.9-104.6h-22.1l-15.5,39.9c0-0.4,0-0.7,0-1.1
	c0-36.9,30-66.8,66.8-66.8c36.9,0,66.8,30,66.8,66.8C14.2,769.7-9.6,797.1-40.9,802.7L-40.9,802.7z"/>
</svg>
