<?xml version="1.0" encoding="utf-8"?>
<!-- Generator: Adobe Illustrator 15.1.0, SVG Export Plug-In . SVG Version: 6.00 Build 0)  -->
<!DOCTYPE svg PUBLIC "-//W3C//DTD SVG 1.1//EN" "http://www.w3.org/Graphics/SVG/1.1/DTD/svg11.dtd">
<svg version="1.1" id="Layer_1" xmlns="http://www.w3.org/2000/svg" xmlns:xlink="http://www.w3.org/1999/xlink" x="0px" y="0px"
	 width="128px" height="128px" viewBox="0 0 128 128" enable-background="new 0 0 128 128" xml:space="preserve">
<g id="g3442" transform="matrix(2.7789824,0,0,2.7789824,1908.3063,-570.16054)">
	<path id="path3446" fill="#FFFFFF" d="M-651.436,215.453h-24.116c-0.357,0-0.647,0.289-0.647,0.646v24.114
		c0,0.357,0.29,0.646,0.647,0.646h24.116c0.357,0,0.647-0.289,0.647-0.646v-24.114
		C-650.786,215.742-651.079,215.453-651.436,215.453z M-655.417,231.386l-4.037-4.037l-0.808,0.805l-3.231,3.232l-0.808,0.807
		l4.039,4.037h-11.305v-11.307l4.037,4.039l0.808-0.808l3.231-3.231l0.808-0.805l-4.037-4.04h11.305v11.308H-655.417z"/>
</g>
</svg>
