<?xml version="1.0" encoding="utf-8"?>
<!-- Generator: Adobe Illustrator 18.1.1, SVG Export Plug-In . SVG Version: 6.00 Build 0)  -->
<svg version="1.1" id="Laag_1" xmlns="http://www.w3.org/2000/svg" xmlns:xlink="http://www.w3.org/1999/xlink" x="0px" y="0px"
	 viewBox="-256 536 512 512" enable-background="new -256 536 512 512" xml:space="preserve">
<g id="check-circle-outline">
	<path fill="#FFFFFF" d="M-46.9,770.3l-16,16l51.5,51.5l114.3-114.3l-16-16l-98.3,98.3L-46.9,770.3z M91.5,792
		c0,50.3-41.2,91.5-91.5,91.5s-91.5-41.2-91.5-91.5s41.2-91.5,91.5-91.5c9.1,0,17.1,1.1,25.2,3.4l18.3-18.3c-13.7-4.6-28.6-8-43.4-8
		c-62.9,0-114.3,51.4-114.3,114.3S-62.9,906.3,0,906.3S114.3,854.9,114.3,792H91.5z"/>
</g>
</svg>
