<?xml version="1.0" encoding="utf-8"?>
<!-- Generator: Adobe Illustrator 18.1.1, SVG Export Plug-In . SVG Version: 6.00 Build 0)  -->
<svg version="1.1" id="Laag_1" xmlns="http://www.w3.org/2000/svg" xmlns:xlink="http://www.w3.org/1999/xlink" x="0px" y="0px"
	 viewBox="-256 536 512 512" enable-background="new -256 536 512 512" xml:space="preserve">
<path fill="#FFFFFF" d="M64.3,715.7c-2.4,0-4.8,0.1-7.2,0.4h-121c-41.9,0-75.9,34-75.9,75.9s34,75.9,75.9,75.9h121
	c2.4,0.2,4.8,0.4,7.2,0.4c42,0,76.2-34.2,76.2-76.2S106.3,715.7,64.3,715.7z M64.3,841.5c-27.3,0-49.5-22.2-49.5-49.5
	s22.2-49.5,49.5-49.5s49.5,22.2,49.5,49.5C113.8,819.3,91.6,841.5,64.3,841.5z"/>
</svg>
