<?xml version="1.0" encoding="utf-8"?>
<!-- Generator: Adobe Illustrator 18.1.1, SVG Export Plug-In . SVG Version: 6.00 Build 0)  -->
<svg version="1.1" id="Laag_1" xmlns="http://www.w3.org/2000/svg" xmlns:xlink="http://www.w3.org/1999/xlink" x="0px" y="0px"
	 viewBox="-256 536 512 512" enable-background="new -256 536 512 512" xml:space="preserve">
<g>
	<path fill="#FFFFFF" d="M100.4,854.4H-99.6c-8.8,0-15.9-7.2-15.9-15.9v-88c0-8.8,7.1-15.9,15.9-15.9h200.1c8.8,0,16,7.2,16,15.9v88
		C116.4,847.2,109.2,854.4,100.4,854.4z M-99.6,745.2c-2.9,0-5.3,2.4-5.3,5.3v88c0,2.9,2.4,5.3,5.3,5.3h200.1c2.9,0,5.3-2.4,5.3-5.3
		v-88c0-2.9-2.4-5.3-5.3-5.3H-99.6z"/>
</g>
<g>
	<g>
		<path fill="#FFFFFF" d="M136.9,753c0,0-3.3-16.2-13.4-26.3c-10.1-10.1-24.9-12-24.9-12l-36.9,36.9l38.3,38.3L136.9,753z
			 M97.3,792.6L59,754.3l0,0l-3.1-3.1l-43.1,43.1l3.1,3.1l0,0l38.3,38.3l0,0l3.1,3.1l43.1-43.1L97.3,792.6L97.3,792.6z M43.1,802
			c-3.4,3.4-9,3.4-12.5,0c-3.4-3.4-3.4-9,0-12.5c3.4-3.4,9-3.4,12.5,0C46.5,793,46.5,798.6,43.1,802z M61.7,820.7
			c-3.4,3.4-9,3.4-12.5,0c-3.4-3.4-3.4-9,0-12.5c3.4-3.4,9-3.4,12.5,0C65.2,811.7,65.2,817.3,61.7,820.7z M63.6,781.5
			c-3.4,3.4-9,3.4-12.4,0c-3.4-3.4-3.4-9,0-12.5c3.4-3.5,9-3.5,12.4,0C67.1,772.4,67.1,778,63.6,781.5z M82.3,800.1
			c-3.4,3.4-9,3.4-12.5,0c-3.4-3.4-3.4-9,0-12.5c3.4-3.4,9-3.4,12.5,0C85.8,791.1,85.8,796.7,82.3,800.1z M-26.4,839.8
			c0,0-3.6,9.8,13.3,26.7c16.9,16.9,25,11.6,25,11.6l39.6-39.6l-38.3-38.3L-26.4,839.8z"/>
	</g>
</g>
<g>
	<rect x="-88" y="759.5" fill="#FFFFFF" width="117.9" height="10.9"/>
</g>
<g>
	<rect x="-88" y="784.7" fill="#FFFFFF" width="88.9" height="10.9"/>
</g>
<g>
	<rect x="-88" y="809.8" fill="#FFFFFF" width="69.6" height="10.9"/>
</g>
</svg>
