<?xml version="1.0" encoding="utf-8"?>
<!-- Generator: Adobe Illustrator 18.1.1, SVG Export Plug-In . SVG Version: 6.00 Build 0)  -->
<svg version="1.1" id="Laag_1" xmlns="http://www.w3.org/2000/svg" xmlns:xlink="http://www.w3.org/1999/xlink" x="0px" y="0px"
	 viewBox="-256 536 512 512" enable-background="new -256 536 512 512" xml:space="preserve">
<g id="notifications-on">
	<path fill="#FFFFFF" d="M-13.9,678.9l-10.6-23.1c-37,10.9-68.8,37.5-85.5,75.2l24.1,9C-71.4,708.3-45.5,686.5-13.9,678.9z
		 M119.1,816l24.1,9c11.9-39.5,6.4-80-14.5-112.4l-23.1,10.6C123.3,749.1,128.7,782.7,119.1,816z M92.7,813.2
		c13.9-37.3-0.3-76.9-32.1-98.3l3.1-8.5c3.6-9.7-1.7-21.3-11.3-24.8c-9.7-3.6-21.3,1.7-24.8,11.3l-3.1,8.5
		c-38.1-4.6-74.6,16.2-88.5,53.6l-24.6,66.3l-33,15.2l-4.5,12l205,76.1l4.5-12l-15.2-33L92.7,813.2z M-37.1,922.7
		c1.2,0.4,3.6,1.4,4.8,1.8c8.9,1.9,17.2-1.9,22.3-8.2c2.1-1.9,4.7-5.2,6-8.7l-48.2-17.9C-57.3,902.9-50.4,917.8-37.1,922.7z"/>
</g>
</svg>
