<?xml version="1.0" encoding="utf-8"?>
<!-- Generator: Adobe Illustrator 24.2.0, SVG Export Plug-In . SVG Version: 6.00 Build 0)  -->
<svg version="1.1" id="Laag_1" xmlns="http://www.w3.org/2000/svg" xmlns:xlink="http://www.w3.org/1999/xlink" x="0px" y="0px"
	 viewBox="0 0 501.62 129.71" style="enable-background:new 0 0 501.62 129.71;" xml:space="preserve">
<style type="text/css">
	.st0{fill:#FFFFFF;}
</style>
<g>
	<path class="st0" d="M322.07,36.04c4.51,0,8.3,0.56,11.38,1.69c3.08,1.13,5.54,2.7,7.38,4.73c1.84,2.03,3.16,4.49,3.95,7.38
		c0.79,2.89,1.18,6.07,1.18,9.53V95.1c-2.1,0.45-5.28,1-9.52,1.63c-4.25,0.64-9.04,0.96-14.37,0.96c-3.53,0-6.76-0.34-9.69-1.01
		c-2.93-0.68-5.43-1.76-7.5-3.27c-2.07-1.5-3.68-3.46-4.85-5.86c-1.17-2.4-1.75-5.37-1.75-8.9c0-3.38,0.66-6.24,1.97-8.57
		c1.31-2.33,3.1-4.23,5.35-5.69c2.25-1.47,4.87-2.52,7.83-3.16c2.97-0.64,6.07-0.96,9.3-0.96c1.5,0,3.08,0.1,4.73,0.28
		c1.65,0.19,3.42,0.51,5.3,0.96v-2.25c0-1.58-0.19-3.08-0.56-4.51c-0.38-1.43-1.03-2.69-1.97-3.78c-0.94-1.09-2.18-1.93-3.72-2.54
		c-1.54-0.6-3.48-0.9-5.8-0.9c-3.16,0-6.05,0.23-8.68,0.68c-2.63,0.45-4.77,0.98-6.42,1.58l-1.69-11.05c1.73-0.6,4.25-1.2,7.55-1.8
		C314.79,36.34,318.32,36.04,322.07,36.04z M323.2,86.87c4.21,0,7.4-0.22,9.58-0.68v-15.1c-0.75-0.22-1.84-0.45-3.27-0.68
		c-1.43-0.23-3.01-0.34-4.73-0.34c-1.5,0-3.03,0.11-4.56,0.34c-1.54,0.23-2.93,0.64-4.17,1.24c-1.24,0.6-2.24,1.45-2.99,2.54
		c-0.75,1.09-1.13,2.46-1.13,4.11c0,3.23,1.01,5.47,3.04,6.71C317,86.25,319.74,86.87,323.2,86.87z"/>
	<path class="st0" d="M377.87,20.26c0,2.56-0.83,4.58-2.48,6.09c-1.65,1.5-3.61,2.25-5.86,2.25c-2.33,0-4.32-0.75-5.97-2.25
		c-1.65-1.5-2.48-3.53-2.48-6.09c0-2.63,0.83-4.7,2.48-6.2c1.65-1.5,3.64-2.25,5.97-2.25c2.26,0,4.21,0.75,5.86,2.25
		C377.04,15.56,377.87,17.63,377.87,20.26z M376.4,96.45h-13.64V37.5h13.64V96.45z"/>
	<path class="st0" d="M408.95,96.45c-3.77-7.74-7.64-16.62-11.6-26.66c-3.96-10.03-7.56-20.79-10.81-32.29h14.54
		c0.83,3.31,1.79,6.86,2.88,10.65c1.09,3.79,2.26,7.59,3.51,11.38c1.24,3.79,2.53,7.48,3.85,11.05c1.32,3.57,2.55,6.78,3.68,9.64
		c1.13-2.85,2.34-6.07,3.62-9.64c1.28-3.57,2.54-7.25,3.79-11.05c1.24-3.79,2.43-7.59,3.56-11.38c1.13-3.79,2.11-7.34,2.94-10.65
		h14.09c-3.24,11.5-6.85,22.26-10.81,32.29c-3.96,10.03-7.83,18.92-11.6,26.66H408.95z"/>
	<path class="st0" d="M448.42,67.26c0-5.18,0.77-9.73,2.31-13.64c1.54-3.91,3.59-7.16,6.14-9.75c2.55-2.59,5.48-4.55,8.79-5.86
		c3.3-1.31,6.69-1.97,10.14-1.97c8.12,0,14.45,2.52,18.99,7.55c4.54,5.04,6.82,12.55,6.82,22.54c0,0.75-0.02,1.6-0.06,2.54
		c-0.04,0.94-0.09,1.79-0.17,2.54h-38.88c0.38,4.73,2.04,8.4,5.02,10.99c2.97,2.59,7.27,3.89,12.9,3.89c3.31,0,6.33-0.3,9.07-0.9
		c2.74-0.6,4.9-1.24,6.48-1.92l1.8,11.16c-0.75,0.38-1.79,0.77-3.1,1.18c-1.31,0.41-2.82,0.79-4.51,1.13s-3.51,0.62-5.47,0.84
		c-1.95,0.23-3.95,0.34-5.97,0.34c-5.19,0-9.69-0.77-13.53-2.31c-3.83-1.54-6.99-3.68-9.47-6.43c-2.48-2.74-4.32-5.97-5.52-9.69
		C449.02,75.77,448.42,71.69,448.42,67.26z M487.98,61.17c0-1.88-0.27-3.66-0.79-5.35c-0.53-1.69-1.3-3.16-2.31-4.4
		c-1.02-1.24-2.25-2.21-3.72-2.93c-1.46-0.71-3.21-1.07-5.24-1.07c-2.11,0-3.95,0.39-5.52,1.18c-1.58,0.79-2.91,1.82-4,3.1
		c-1.09,1.28-1.94,2.74-2.54,4.4c-0.6,1.65-1.01,3.34-1.24,5.07H487.98z"/>
	<path class="st0" d="M234.73,109.78c-6.49-6.32-12.05-12.36-17.43-18.93c2.56-2.86,4.56-6.28,5.98-10.29
		c1.45-4.11,2.18-8.66,2.18-13.65c0-4.99-0.75-9.52-2.24-13.59c-1.49-4.07-3.56-7.55-6.22-10.45c-2.66-2.9-5.86-5.13-9.61-6.7
		c-3.75-1.57-7.84-2.36-12.26-2.36c-4.43,0-8.5,0.79-12.21,2.36c-3.71,1.57-6.91,3.81-9.6,6.7c-2.7,2.9-4.79,6.39-6.28,10.45
		c-1.49,4.07-2.24,8.6-2.24,13.59c0,5,0.74,9.54,2.24,13.65c1.49,4.11,3.56,7.61,6.22,10.51c2.66,2.9,5.84,5.16,9.54,6.77
		c3.7,1.61,7.81,2.42,12.32,2.42c4.26,0,8.18-0.73,11.76-2.17c4.37,7.12,9.31,13.96,14.79,20.45
		C227.07,115.3,229.8,113.47,234.73,109.78z M183.82,82.01c-2.7-3.7-4.05-8.74-4.05-15.1c0-6.28,1.35-11.26,4.05-14.92
		c2.7-3.66,6.47-5.5,11.3-5.5c4.83,0,8.6,1.83,11.3,5.5c2.7,3.67,4.05,8.64,4.05,14.92c0,6.36-1.35,11.4-4.05,15.1
		c-2.7,3.71-6.46,5.56-11.3,5.56C190.29,87.57,186.52,85.72,183.82,82.01z"/>
	<path class="st0" d="M285.11,94.65c-2.63,0.68-6.05,1.37-10.26,2.09c-4.21,0.71-8.83,1.07-13.87,1.07c-4.73,0-8.7-0.68-11.89-2.03
		c-3.19-1.35-5.75-3.23-7.66-5.63c-1.92-2.4-3.29-5.28-4.11-8.62c-0.83-3.34-1.24-7.01-1.24-10.99V37.5h13.64v30.88
		c0,6.31,0.92,10.82,2.76,13.53c1.84,2.71,5.05,4.06,9.64,4.06c1.65,0,3.4-0.07,5.24-0.23c1.84-0.15,3.21-0.34,4.11-0.56V37.5h13.64
		V94.65z"/>
	<path class="st0" d="M92.88,123.72c-2.75-12.61-13.97-22.05-27.4-22.05c-13.43,0-24.65,9.44-27.4,22.05
		c8.33,3.85,17.6,5.99,27.41,5.99C75.28,129.71,84.55,127.57,92.88,123.72z"/>
	<path class="st0" d="M130.96,64.23c0-2.6-0.16-5.16-0.45-7.68c-12.83-1.28-25.28,6.48-29.43,19.25
		c-4.15,12.77,1.36,26.35,12.48,32.86C124.37,96.97,130.96,81.41,130.96,64.23z"/>
	<path class="st0" d="M87.49,33.94c10.86,7.89,25.49,6.85,35.12-1.73c-2.95-5.25-6.6-10.05-10.83-14.29
		c-9-8.99-20.55-15.36-33.5-17.92C73.09,11.81,76.62,26.05,87.49,33.94z"/>
	<path class="st0" d="M8.35,32.22c9.63,8.58,24.26,9.62,35.13,1.72C54.35,26.05,57.88,11.81,52.69,0
		C39.74,2.56,28.19,8.93,19.18,17.92C14.95,22.16,11.3,26.97,8.35,32.22z"/>
	<path class="st0" d="M29.88,75.8C25.73,63.03,13.29,55.27,0.45,56.55C0.16,59.07,0,61.63,0,64.23
		c0.01,17.18,6.59,32.74,17.39,44.44C28.52,102.15,34.03,88.57,29.88,75.8z"/>
</g>
</svg>
