<?xml version="1.0" encoding="utf-8"?>
<!-- Generator: Adobe Illustrator 24.2.1, SVG Export Plug-In . SVG Version: 6.00 Build 0)  -->
<svg version="1.1" id="Laag_1" xmlns="http://www.w3.org/2000/svg" xmlns:xlink="http://www.w3.org/1999/xlink" x="0px" y="0px"
	 viewBox="0 0 462.6 72.8" style="enable-background:new 0 0 462.6 72.8;" xml:space="preserve">
<style type="text/css">
	.st0{fill:#004666;}
	.st1{fill:#009EE2;}
</style>
<g id="Quaive">
	<path class="st0" d="M180.6,20.2c2.5,0,4.7,0.3,6.4,0.9s3.1,1.5,4.1,2.7c1,1.1,1.8,2.5,2.2,4.1c0.4,1.6,0.7,3.4,0.7,5.3v20
		c-1.2,0.3-3,0.6-5.3,0.9c-2.4,0.4-5.1,0.5-8.1,0.5c-2,0-3.8-0.2-5.4-0.6c-1.6-0.4-3-1-4.2-1.8c-1.2-0.8-2.1-1.9-2.7-3.3
		c-0.7-1.3-1-3-1-5c0-1.9,0.4-3.5,1.1-4.8c0.7-1.3,1.7-2.4,3-3.2c1.3-0.8,2.7-1.4,4.4-1.8c1.7-0.4,3.4-0.5,5.2-0.5
		c0.8,0,1.7,0.1,2.7,0.2c0.9,0.1,1.9,0.3,3,0.5V33c0-0.9-0.1-1.7-0.3-2.5s-0.6-1.5-1.1-2.1c-0.5-0.6-1.2-1.1-2.1-1.4
		c-0.9-0.3-1.9-0.5-3.3-0.5c-1.8,0-3.4,0.1-4.9,0.4s-2.7,0.5-3.6,0.9l-0.9-6.2c1-0.3,2.4-0.7,4.2-1
		C176.5,20.4,178.5,20.2,180.6,20.2z M181.2,48.7c2.4,0,4.1-0.1,5.4-0.4v-8.5c-0.4-0.1-1-0.3-1.8-0.4c-0.8-0.1-1.7-0.2-2.7-0.2
		c-0.8,0-1.7,0.1-2.6,0.2c-0.9,0.1-1.6,0.4-2.3,0.7c-0.7,0.3-1.3,0.8-1.7,1.4c-0.4,0.6-0.6,1.4-0.6,2.3c0,1.8,0.6,3.1,1.7,3.8
		C177.7,48.4,179.3,48.7,181.2,48.7z"/>
	<path class="st0" d="M211.9,11.4c0,1.4-0.5,2.6-1.4,3.4s-2,1.3-3.3,1.3s-2.4-0.4-3.3-1.3c-0.9-0.8-1.4-2-1.4-3.4
		c0-1.5,0.5-2.6,1.4-3.5c0.9-0.8,2-1.3,3.3-1.3s2.4,0.4,3.3,1.3C211.4,8.7,211.9,9.9,211.9,11.4z M211,54.1h-7.6v-33h7.6V54.1z"/>
	<path class="st0" d="M229.3,54.1c-2.1-4.3-4.3-9.3-6.5-14.9s-4.2-11.7-6.1-18.1h8.2c0.5,1.9,1,3.8,1.6,6c0.6,2.1,1.3,4.3,2,6.4
		s1.4,4.2,2.2,6.2c0.7,2,1.4,3.8,2.1,5.4c0.6-1.6,1.3-3.4,2-5.4s1.4-4.1,2.1-6.2c0.7-2.1,1.4-4.3,2-6.4s1.2-4.1,1.7-6h7.9
		c-1.8,6.4-3.8,12.5-6.1,18.1c-2.2,5.6-4.4,10.6-6.5,14.9C235.9,54.1,229.3,54.1,229.3,54.1z"/>
	<path class="st0" d="M251.4,37.7c0-2.9,0.4-5.5,1.3-7.6c0.9-2.2,2-4,3.4-5.5c1.4-1.5,3.1-2.5,4.9-3.3c1.9-0.7,3.7-1.1,5.7-1.1
		c4.5,0,8.1,1.4,10.6,4.2s3.8,7,3.8,12.6c0,0.4,0,0.9,0,1.4s-0.1,1-0.1,1.4h-21.8c0.2,2.7,1.1,4.7,2.8,6.2c1.7,1.5,4.1,2.2,7.2,2.2
		c1.9,0,3.5-0.2,5.1-0.5c1.5-0.3,2.7-0.7,3.6-1.1l1,6.3c-0.4,0.2-1,0.4-1.7,0.7c-0.7,0.2-1.6,0.4-2.5,0.6s-2,0.3-3.1,0.5
		c-1.1,0.1-2.2,0.2-3.3,0.2c-2.9,0-5.4-0.4-7.6-1.3c-2.1-0.9-3.9-2.1-5.3-3.6c-1.4-1.5-2.4-3.3-3.1-5.4
		C251.7,42.5,251.4,40.2,251.4,37.7z M273.6,34.3c0-1.1-0.1-2.1-0.4-3c-0.3-0.9-0.7-1.8-1.3-2.5c-0.6-0.7-1.3-1.2-2.1-1.6
		c-0.8-0.4-1.8-0.6-2.9-0.6c-1.2,0-2.2,0.2-3.1,0.7c-0.9,0.4-1.6,1-2.2,1.7s-1.1,1.5-1.4,2.5c-0.3,0.9-0.6,1.9-0.7,2.8H273.6z"/>
	<path class="st0" d="M131.6,61.6c-3.6-3.5-6.8-6.9-9.8-10.6c1.4-1.6,2.6-3.5,3.4-5.8c0.8-2.3,1.2-4.9,1.2-7.7
		c0-2.8-0.4-5.3-1.3-7.6c-0.8-2.3-2-4.2-3.5-5.9c-1.5-1.6-3.3-2.9-5.4-3.8s-4.4-1.3-6.9-1.3s-4.8,0.4-6.8,1.3
		c-2.1,0.9-3.9,2.1-5.4,3.8c-1.5,1.6-2.7,3.6-3.5,5.9s-1.3,4.8-1.3,7.6c0,2.8,0.4,5.4,1.3,7.7c0.8,2.3,2,4.3,3.5,5.9
		s3.3,2.9,5.4,3.8s4.4,1.4,6.9,1.4c2.4,0,4.6-0.4,6.6-1.2c2.4,4,5.2,7.8,8.3,11.5C127.3,64.7,128.8,63.6,131.6,61.6z M103.1,46
		c-1.5-2.1-2.3-4.9-2.3-8.5c0-3.5,0.8-6.3,2.3-8.4s3.6-3.1,6.3-3.1c2.7,0,4.8,1,6.3,3.1s2.3,4.8,2.3,8.4c0,3.6-0.8,6.4-2.3,8.5
		s-3.6,3.1-6.3,3.1S104.6,48.1,103.1,46z"/>
	<path class="st0" d="M159.8,53.1c-1.5,0.4-3.4,0.8-5.8,1.2c-2.4,0.4-5,0.6-7.8,0.6c-2.7,0-4.9-0.4-6.7-1.1
		c-1.8-0.8-3.2-1.8-4.3-3.2c-1.1-1.3-1.8-3-2.3-4.8c-0.5-1.9-0.7-3.9-0.7-6.2V21h7.6v17.4c0,3.5,0.5,6.1,1.5,7.6s2.8,2.3,5.4,2.3
		c0.9,0,1.9,0,2.9-0.1s1.8-0.2,2.3-0.3V21h7.6v32.1H159.8z"/>
	<path class="st0" d="M52.1,69.4C50.6,62.3,44.3,57,36.7,57c-7.5,0-13.8,5.3-15.4,12.4c4.7,2.2,9.9,3.4,15.4,3.4
		C42.2,72.7,47.4,71.5,52.1,69.4z"/>
	<path class="st0" d="M73.4,36c0-1.5-0.1-2.9-0.3-4.3C66,31,59,35.4,56.7,42.5c-2.3,7.2,0.8,14.8,7,18.4
		C69.7,54.4,73.4,45.7,73.4,36z"/>
	<path class="st0" d="M49.1,19c6.1,4.4,14.3,3.8,19.7-1c-1.7-2.9-3.7-5.6-6.1-8c-5-5-11.5-8.6-18.8-10C41,6.6,43,14.6,49.1,19z"/>
	<path class="st0" d="M4.7,18.1c5.4,4.8,13.6,5.4,19.7,1s8.1-12.4,5.2-19c-7.3,1.4-13.7,5-18.8,10C8.4,12.4,6.3,15.1,4.7,18.1z"/>
	<path class="st0" d="M16.8,42.5C14.4,35.4,7.4,31,0.3,31.7C0.1,33.1,0,34.6,0,36c0,9.7,3.7,18.4,9.8,24.9
		C16,57.3,19.1,49.7,16.8,42.5z"/>
</g>
<g id="Cloud">
	<path class="st1" d="M366.2,54.7c0,0.5-0.1,0.8-0.4,1c-0.2,0.3-0.6,0.5-0.9,0.6s-0.8,0.2-1.3,0.3c-0.5,0-1,0.1-1.5,0.1
		c-1.1,0-2.2,0-3.1-0.1c-0.9,0-1.8-0.1-2.5-0.2c-0.8-0.1-1.5-0.1-2.3-0.2c-0.8-0.1-1.5-0.1-2.3-0.1c-3.6,0-6.7,0.1-9.3,0.3
		c-2.7,0.2-5.2,0.4-7.4,0.7c-2.3,0.2-4.5,0.5-6.6,0.7c-2.1,0.2-4.3,0.3-6.8,0.3c-3.5,0-6.4-0.4-8.6-1.1c-2.3-0.8-4.1-1.8-5.5-3.1
		c-1.3-1.3-2.3-3-2.8-5c-0.6-2-0.8-4.1-0.8-6.6c0-3.2,0.7-6.3,1.9-9.4c1.2-3.1,2.9-5.9,5-8.6c2.1-2.7,4.4-5.2,7.1-7.4
		c2.7-2.3,5.5-4.2,8.3-5.8s5.7-2.9,8.6-3.9s5.5-1.4,7.8-1.4c2.8,0,5,0.7,6.6,2c1.6,1.3,2.4,2.9,2.4,5c0,1.6-0.4,3-1.2,4.3
		c-0.8,1.3-1.8,2.4-2.8,3.5c-1.1,1-2.2,1.8-3.3,2.4s-2,0.8-2.6,0.8c-0.2,0-0.4,0-0.7-0.1s-0.7-0.2-0.9-0.4c-0.3-0.2-0.6-0.4-0.8-0.7
		c-0.2-0.3-0.4-0.7-0.4-1c0-0.5,0.1-0.9,0.4-1.4c0.3-0.5,0.6-0.8,0.8-0.8c0.4-0.3,0.9-0.7,1.7-1.1s1.4-1,2.1-1.7
		c0.7-0.7,1.2-1.2,1.8-2c0.5-0.7,0.8-1.3,0.8-2c0-0.8-0.4-1.5-1-1.8c-0.8-0.4-1.6-0.5-2.6-0.5c-2.8,0-5.6,0.6-8.5,1.6
		c-2.8,1-5.5,2.4-8.1,4.1c-2.5,1.7-5,3.7-7.1,5.8c-2.2,2.2-4.1,4.4-5.7,6.8c-1.6,2.4-2.9,4.6-3.9,6.8c-0.9,2.3-1.4,4.2-1.4,6
		c0,2.1,0.3,3.8,0.8,5.1c0.6,1.2,1.2,2.2,2.2,2.8s1.9,1.1,2.9,1.3c1.1,0.2,2.2,0.3,3.2,0.3c0.9,0,2.2-0.1,3.7-0.2
		c1.5-0.1,3.3-0.3,5.2-0.6c1.9-0.2,3.9-0.5,6-0.7c2.2-0.2,4.2-0.5,6.3-0.7c2.1-0.2,4-0.4,5.8-0.6c1.9-0.1,3.5-0.2,4.9-0.2
		c3.4,0,6.1,0.2,8.4,0.6c2.3,0.4,3.9,0.9,5.3,1.5c1.3,0.7,2.3,1.3,2.7,2.2C366,53.1,366.2,53.9,366.2,54.7z"/>
	<path class="st1" d="M373.7,51.3c0,0.7-0.1,1.1-0.3,1.7c-0.2,0.5-0.6,0.8-1.1,0.8c-0.4,0-0.7-0.2-0.9-0.6c-0.3-0.4-0.6-0.8-0.8-1.3
		c-0.3-0.6-0.5-1.1-0.8-1.9c-0.4-1.1-0.9-2.8-1.7-5.1c-0.8-2.3-1.5-4.8-2.4-7.6c-0.9-2.8-1.8-5.7-2.7-8.7s-1.8-5.9-2.5-8.6
		c-0.8-2.6-1.4-5-1.9-7.1c-0.5-2-0.8-3.4-0.8-4.1c0-0.4,0-0.8,0.1-1.3c0.1-0.5,0.2-0.9,0.4-1.3c0.2-0.4,0.5-0.8,0.8-1
		c0.3-0.3,0.7-0.4,1-0.4s0.8,0.1,1.1,0.4c0.4,0.3,0.7,0.6,0.9,0.9c0.3,0.4,0.6,0.8,0.8,1.2c0.2,0.4,0.4,0.8,0.4,1
		c0.6,2,1.1,4.3,1.9,7.1c0.8,2.7,1.4,5.6,2.3,8.6c0.8,3,1.5,6,2.4,9c0.8,3,1.4,5.7,2.1,8.3c0.6,2.5,1.1,4.7,1.5,6.5
		C373.5,49.6,373.7,50.8,373.7,51.3z"/>
	<path class="st1" d="M400.8,38.5c0,1.4-0.6,3-1.8,4.8c-1.2,1.8-2.7,3.6-4.6,5.2c-1.9,1.7-3.9,3-6.3,4.1c-2.3,1.1-4.5,1.7-6.8,1.7
		c-1.1,0-2-0.3-2.7-0.8c-0.8-0.6-1.3-1.1-1.7-1.9s-0.7-1.5-0.8-2.4c-0.2-0.8-0.3-1.5-0.3-2.1c0-1.1,0.3-2.2,0.8-3.3
		c0.5-1.1,1.1-2.2,2-3.3c0.8-1,1.8-2.1,2.8-2.9c1-0.9,2.2-1.7,3.2-2.4c1.1-0.7,2.2-1.2,3.3-1.6c1-0.4,2.1-0.6,2.9-0.6
		c0.9,0,1.9,0.2,2.6,0.7s1.2,1,1.2,1.8c0,0.4-0.1,0.7-0.4,0.9c-0.3,0.3-0.6,0.6-0.8,0.8c-0.3,0.2-0.7,0.4-0.9,0.6
		c-0.3,0.1-0.6,0.2-0.7,0.2c-0.2,0-0.7,0.1-1.3,0.4c-0.7,0.3-1.4,0.7-2.3,1c-0.8,0.5-1.7,0.9-2.5,1.7c-0.8,0.7-1.7,1.3-2.4,2.1
		s-1.3,1.6-1.8,2.4c-0.5,0.8-0.8,1.8-0.8,2.7c0,0.4,0.1,0.8,0.3,0.9c0.2,0.3,0.4,0.4,0.7,0.5s0.7,0.2,0.9,0.3c0.9,0,2.3-0.4,3.8-1
		c1.5-0.7,3-1.6,4.5-2.6c1.5-1,2.7-2.3,3.8-3.5c1-1.3,1.6-2.5,1.6-3.7c0-0.5-0.1-0.8-0.2-1c-0.1-0.2-0.3-0.4-0.4-0.6
		c-0.2-0.2-0.3-0.4-0.4-0.6c-0.1-0.2-0.2-0.5-0.2-0.8c0-0.7,0.3-1.1,0.8-1.5c0.5-0.4,1-0.5,1.5-0.5c0.4,0,0.7,0.1,1.1,0.3
		c0.4,0.2,0.8,0.5,1.1,0.8c0.4,0.4,0.7,0.8,0.8,1.3C400.7,37.2,400.8,37.9,400.8,38.5z"/>
	<path class="st1" d="M422.5,45.8c0,2.6-0.7,4.7-1.9,6.1c-1.2,1.5-2.9,2.2-4.9,2.2c-1.5,0-2.9-0.5-4.1-1.3c-1.2-0.8-2.3-2-3.2-3.3
		s-1.8-2.7-2.4-4.3c-0.7-1.6-1.2-3-1.7-4.5c-0.5-1.4-0.8-2.6-0.9-3.8c-0.2-1-0.3-1.8-0.3-2.1c0-0.6,0.2-1.1,0.5-1.8
		c0.3-0.6,0.8-0.8,1.5-0.8c0.4,0,0.8,0.1,1,0.4c0.4,0.3,0.7,0.6,0.8,1c0.3,0.4,0.5,0.8,0.7,1.2c0.2,0.5,0.3,0.8,0.4,1.2
		c0.2,0.8,0.5,2,0.9,3.4c0.5,1.4,1,2.8,1.8,4.1s1.5,2.5,2.4,3.5s2,1.4,3,1.4c0.8,0,1.6-0.3,2.2-0.8c0.6-0.6,0.8-1.5,0.8-2.8
		c0-1-0.1-2-0.4-2.8c-0.3-0.8-0.6-1.6-0.9-2.3c-0.3-0.7-0.7-1.3-0.9-2c-0.3-0.7-0.4-1.3-0.4-2c0-0.4,0.1-0.8,0.3-1
		c0.2-0.3,0.5-0.5,0.9-0.5c0.6,0,1.1,0.4,1.7,1.2c0.6,0.8,1,1.8,1.5,3c0.5,1.1,0.8,2.4,1,3.7C422.4,43.7,422.5,44.8,422.5,45.8z"/>
	<path class="st1" d="M462.6,51.6c0,0.4-0.1,0.7-0.3,0.8c-0.2,0.2-0.4,0.4-0.6,0.5s-0.4,0.2-0.7,0.2c-0.2,0-0.4,0-0.4,0
		c-1,0-2-0.4-2.9-0.9c-0.9-0.6-1.8-1.2-2.5-2.1c-0.8-0.8-1.5-1.6-2.1-2.5c-0.7-0.8-1.1-1.7-1.6-2.4c-0.6-0.9-1.2-2.2-1.9-3.7
		c-0.7-1.4-1.2-2.8-1.8-4.1c-0.6-1.3-0.9-2.4-1.3-3.5c-0.4-0.9-0.6-1.4-0.7-1.4c-0.1,0-0.1,0-0.1,0.1c0,0,0,0.1-0.1,0.2
		c-0.6,2.4-1.4,5-2.6,7.5c-1.2,2.5-2.6,4.9-4.2,7c-1.6,2.1-3.3,3.8-5.1,5.1c-1.8,1.3-3.5,2-5.2,2c-0.6,0-1-0.1-1.6-0.2
		c-0.6-0.2-1-0.5-1.5-0.8c-0.5-0.4-0.8-0.9-1-1.6c-0.3-0.7-0.4-1.5-0.4-2.4c0-2,0.6-3.9,1.7-5.7c1.1-1.9,2.4-3.7,4-5.3
		c1.5-1.6,3.1-2.9,4.6-4s2.6-1.8,3.5-2.1c0.8-0.3,1.4-0.4,1.9-0.4c0.5,0,0.8,0.1,1.1,0.2c0.3,0.1,0.6,0.3,0.8,0.5
		c0.2,0.2,0.4,0.3,0.5,0.5c0.1,0.1,0.2,0.2,0.3,0.2c0.2,0,0.4-0.4,0.6-1.1c0.2-0.8,0.4-1.6,0.5-2.5c0.2-0.9,0.3-1.9,0.4-2.7
		c0.1-0.9,0.1-1.5,0.1-1.9c-0.6-3-1-5.9-1.5-8.6c-0.2-1.2-0.4-2.4-0.6-3.7c-0.2-1.2-0.4-2.4-0.5-3.7c-0.1-1.1-0.3-2.3-0.4-3.3
		s-0.1-2-0.1-2.7c0-1.2,0.2-2,0.5-2.4s0.7-0.5,0.9-0.5c0.8,0,1.6,0.8,2.2,2.3c1.1,2.5,1.8,5.7,2.1,9.7c0.3,3.9,0.4,8.3,0.5,13.1
		c0,0.5,0.2,1.4,0.7,2.9c0.5,1.5,1.1,3.2,2.1,5.3c0.9,2,2.1,4.1,3.4,6.4c1.4,2.3,3,4.3,4.8,6.3c0.9,1,1.8,1.9,2.6,2.6
		c0.8,0.8,1.3,1.3,1.5,1.8C462.5,50.7,462.6,51.1,462.6,51.6z M441.3,36.8c0-0.1-0.1-0.2-0.2-0.2c-0.1,0-0.5,0.2-1.1,0.7
		c-0.7,0.5-1.4,1-2.3,1.8c-0.8,0.8-1.8,1.6-2.8,2.5s-1.9,1.9-2.7,2.8c-0.8,0.9-1.5,2-2.1,2.8c-0.6,0.9-0.8,1.7-0.8,2.4
		c0,0.3,0.1,0.5,0.2,0.7c0.2,0.1,0.3,0.2,0.5,0.2c0.7,0,1.3-0.3,2.2-0.8c0.8-0.6,1.6-1.3,2.4-2.3c0.8-0.9,1.7-1.9,2.4-3
		c0.8-1.1,1.5-2.2,2.2-3.2c0.7-1,1.1-1.9,1.5-2.7C441.1,37.7,441.3,37.1,441.3,36.8z"/>
</g>
</svg>
