<?xml version="1.0" encoding="utf-8"?>
<!-- Generator: Adobe Illustrator 18.1.1, SVG Export Plug-In . SVG Version: 6.00 Build 0)  -->
<svg version="1.1" id="Laag_1" xmlns="http://www.w3.org/2000/svg" xmlns:xlink="http://www.w3.org/1999/xlink" x="0px" y="0px"
	 viewBox="-256 536 512 512" enable-background="new -256 536 512 512" xml:space="preserve">
<g>
	<circle fill="#FFFFFF" stroke="#000000" stroke-miterlimit="10" cx="107.1" cy="684.1" r="10.9"/>
	<path fill="#FFFFFF" stroke="#000000" stroke-miterlimit="10" d="M152.5,906.5V670.3c0-16.5-13.5-30-30-30h-245
		c-16.5,0-30,13.5-30,30v236.2c0,16.5,13.5,30,30,30h245C139,936.5,152.5,923.1,152.5,906.5z M-130.4,670.3c0-4.4,3.5-7.9,7.9-7.9
		h245c4.4,0,7.9,3.5,7.9,7.9v33.8h-260.8V670.3z M-130.4,906.5V726.2h260.8v180.3c0,4.4-3.5,7.9-7.9,7.9h-245
		C-126.9,914.4-130.4,910.9-130.4,906.5z"/>
</g>
</svg>
