<?xml version="1.0" encoding="utf-8"?>
<!-- Generator: Adobe Illustrator 18.1.1, SVG Export Plug-In . SVG Version: 6.00 Build 0)  -->
<svg version="1.1" id="Laag_1" xmlns="http://www.w3.org/2000/svg" xmlns:xlink="http://www.w3.org/1999/xlink" x="0px" y="0px"
	 viewBox="-256 536 512 512" enable-background="new -256 536 512 512" xml:space="preserve">
<path fill="#FFFFFF" d="M165.4,804.4V780H122c-2.4-24.6-12.2-47.1-27.1-65.3l30.7-30.7l-17.2-17.2l-30.7,30.7
	c-18.2-14.9-40.7-24.7-65.3-27.1V627H-12v43.3c-24.6,2.4-47.1,12.2-65.3,27.1l-30.7-30.7l-17.2,17.2l30.7,30.7
	c-14.9,18.2-24.7,40.7-27.1,65.3H-165v24.4h43.3c2.4,24.6,12.2,47.1,27.1,65.3l-30.7,30.7l17.2,17.2l30.7-30.7
	c18.2,14.9,40.7,24.7,65.3,27.1v43.3h24.4V914c24.6-2.4,47.1-12.2,65.3-27.1l30.7,30.7l17.2-17.2l-30.7-30.7
	c14.9-18.2,24.7-40.7,27.1-65.3H165.4L165.4,804.4z M91.9,780H29.6l44-44C83.2,748.5,89.7,763.6,91.9,780z M56.4,718.8l-44,44v-62.3
	C28.8,702.7,43.8,709.1,56.4,718.8z M-12,700.5v62.3l-44-44C-43.5,709.1-28.4,702.7-12,700.5z M-73.2,736l44,44h-62.3
	C-89.3,763.6-82.9,748.5-73.2,736z M-91.5,804.4h62.3l-44,44C-82.9,835.8-89.3,820.8-91.5,804.4z M-56,865.6l44-44v62.3
	C-28.4,881.7-43.5,875.2-56,865.6z M12.4,883.9v-62.3l44,44C43.8,875.2,28.8,881.7,12.4,883.9z M73.6,848.4l-44-44h62.3
	C89.7,820.8,83.2,835.8,73.6,848.4z"/>
</svg>
