<?xml version="1.0" encoding="utf-8"?>
<!-- Generator: Adobe Illustrator 18.1.1, SVG Export Plug-In . SVG Version: 6.00 Build 0)  -->
<svg version="1.1" id="Laag_1" xmlns="http://www.w3.org/2000/svg" xmlns:xlink="http://www.w3.org/1999/xlink" x="0px" y="0px"
	 viewBox="-256 536 512 512" enable-background="new -256 536 512 512" xml:space="preserve">
<g id="layer1" transform="translate(-291.62063,-284.125)">
	<g id="g3876">
		<path id="path3825" fill="#FFFFFF" d="M293.9,957.1c-17,0-30.7,6.1-30.7,13.6c0,1.5,0.5,2.8,1.4,4.1l-0.1,0.1
			c17.4,14.1,51.2,10.1,59.2-1.4v0.6c0.6-1.1,0.9-2.1,0.9-3.3v-0.2C324.6,963,310.8,957.1,293.9,957.1L293.9,957.1z M323.8,975.2
			l-0.4,14.1c-11,13.2-45.3,15.6-60.5-0.2l0.4-13.7L245,986.2c-1.7-0.1-3.3-0.2-5.1-0.2c-17,0-30.7,6.1-30.7,13.6
			c0,1.8,0.9,3.5,2.2,5.1c17.6,13.5,50.6,9.4,58.5-2l-0.4,16c-11,13.2-45.3,15.6-60.6-0.2l0.3-11.2l-23.6,13.9l109.2,62.7
			l109.1-63.1l-25.1-14.2l-0.3,11.6c-11,13.2-45.3,15.6-60.5-0.2l0.5-15.5c16.8,15.4,51.8,11.6,60.4,0v-0.1c0.5-1,0.8-2,0.8-2.9
			v-0.2c-0.2-7.4-13.9-13.5-30.7-13.5c-2,0-4.1,0.1-6.1,0.3L323.8,975.2L323.8,975.2z M325.2,1033.8l-0.4,16
			c-11,13.2-45.3,15.6-60.5-0.2l0.4-15.6C281.6,1049.5,317,1045.6,325.2,1033.8z"/>
		<path id="path3805" fill="#FFFFFF" d="M182.3,1040.8l101.7,60.4v91.6l-102.3-57.3L182.3,1040.8z"/>
		<path id="path3805-4" fill="#FFFFFF" d="M406.5,1038.6L304.2,1102v91.6l102.3-57.3V1038.6z"/>
	</g>
</g>
</svg>
