<?xml version="1.0" encoding="utf-8"?>
<!-- Generator: Adobe Illustrator 25.0.1, SVG Export Plug-In . SVG Version: 6.00 Build 0)  -->
<svg version="1.1" id="Laag_1" xmlns="http://www.w3.org/2000/svg" xmlns:xlink="http://www.w3.org/1999/xlink" x="0px" y="0px"
	 viewBox="0 0 538.6 538.6" style="enable-background:new 0 0 538.6 538.6;" xml:space="preserve">
<style type="text/css">
	.st0{fill:#006400;}
</style>
<path class="st0" d="M286.2,181.1l-17.4,82.4c5.5,1.8,10.5,2.7,14.9,2.7c12.6,0,22.7-4.2,30.4-12.7c7.7-8.5,11.6-19.6,11.6-33.5
	c0-11.8-3.6-21.2-10.8-28.3C307.7,184.6,298.1,181.1,286.2,181.1z M269.3,83.3c-102.5,0-185.5,83.3-185.5,186
	c0,102.7,83.1,186,185.5,186s185.5-83.3,185.5-186C454.8,166.6,371.8,83.3,269.3,83.3z M346.5,260.6c-12.9,11.4-28.6,17.2-47.3,17.2
	c-10.3,0-21-2-32.1-6.1l-13.5,64.2c-0.3,1.2-0.5,2.4-0.5,3.5c0,10.3,8.1,16.1,24.3,17.2l-1.3,5.8h-91.3l1-5.8
	c10.3-2.1,17.4-5.1,21.3-8.9c3.9-3.8,6.8-10.3,8.6-19.5L246,184.2c-11.4,3.6-23.2,9.6-35.4,17.8l-3-4.3
	c28.5-21.7,56.8-32.5,84.9-32.5c21.9,0,39.6,5,53.1,14.9c13.4,10,20.2,22.9,20.2,38.9C365.8,235.3,359.3,249.2,346.5,260.6z"/>
</svg>
