<?xml version="1.0" encoding="utf-8"?>
<!-- Generator: Adobe Illustrator 24.2.1, SVG Export Plug-In . SVG Version: 6.00 Build 0)  -->
<svg version="1.1" id="Laag_1" xmlns="http://www.w3.org/2000/svg" xmlns:xlink="http://www.w3.org/1999/xlink" x="0px" y="0px"
	 viewBox="0 0 538.6 538.6" style="enable-background:new 0 0 538.6 538.6;" xml:space="preserve">
<style type="text/css">
	.st0{fill:#004666;}
	.st1{fill:#009EE2;}
</style>
<g id="Quaive">
	<path class="st0" d="M218.6,253.1c2.5,0,4.7,0.3,6.4,0.9c1.7,0.6,3.1,1.5,4.1,2.7c1,1.1,1.8,2.5,2.2,4.1c0.4,1.6,0.7,3.4,0.7,5.3
		v20c-1.2,0.3-3,0.6-5.3,0.9c-2.4,0.4-5.1,0.5-8.1,0.5c-2,0-3.8-0.2-5.4-0.6c-1.6-0.4-3-1-4.2-1.8s-2.1-1.9-2.7-3.3
		c-0.7-1.3-1-3-1-5c0-1.9,0.4-3.5,1.1-4.8c0.7-1.3,1.7-2.4,3-3.2c1.3-0.8,2.7-1.4,4.4-1.8s3.4-0.5,5.2-0.5c0.8,0,1.7,0.1,2.7,0.2
		c0.9,0.1,1.9,0.3,3,0.5v-1.3c0-0.9-0.1-1.7-0.3-2.5c-0.2-0.8-0.6-1.5-1.1-2.1c-0.5-0.6-1.2-1.1-2.1-1.4c-0.9-0.3-1.9-0.5-3.3-0.5
		c-1.8,0-3.4,0.1-4.9,0.4c-1.5,0.3-2.7,0.5-3.6,0.9l-0.9-6.2c1-0.3,2.4-0.7,4.2-1C214.5,253.3,216.5,253.1,218.6,253.1z
		 M219.2,281.6c2.4,0,4.1-0.1,5.4-0.4v-8.5c-0.4-0.1-1-0.3-1.8-0.4c-0.8-0.1-1.7-0.2-2.7-0.2c-0.8,0-1.7,0.1-2.6,0.2
		c-0.9,0.1-1.6,0.4-2.3,0.7s-1.3,0.8-1.7,1.4s-0.6,1.4-0.6,2.3c0,1.8,0.6,3.1,1.7,3.8C215.7,281.3,217.3,281.6,219.2,281.6z"/>
	<path class="st0" d="M249.9,244.3c0,1.4-0.5,2.6-1.4,3.4c-0.9,0.8-2,1.3-3.3,1.3s-2.4-0.4-3.3-1.3c-0.9-0.8-1.4-2-1.4-3.4
		c0-1.5,0.5-2.6,1.4-3.5c0.9-0.8,2-1.3,3.3-1.3s2.4,0.4,3.3,1.3C249.4,241.6,249.9,242.8,249.9,244.3z M249,287h-7.6v-33h7.6V287z"
		/>
	<path class="st0" d="M267.3,287c-2.1-4.3-4.3-9.3-6.5-14.9c-2.2-5.6-4.2-11.7-6.1-18.1h8.2c0.5,1.9,1,3.8,1.6,6
		c0.6,2.1,1.3,4.3,2,6.4c0.7,2.1,1.4,4.2,2.2,6.2c0.7,2,1.4,3.8,2.1,5.4c0.6-1.6,1.3-3.4,2-5.4c0.7-2,1.4-4.1,2.1-6.2
		c0.7-2.1,1.4-4.3,2-6.4s1.2-4.1,1.7-6h7.9c-1.8,6.4-3.8,12.5-6.1,18.1c-2.2,5.6-4.4,10.6-6.5,14.9H267.3z"/>
	<path class="st0" d="M289.4,270.6c0-2.9,0.4-5.5,1.3-7.6c0.9-2.2,2-4,3.4-5.5s3.1-2.5,4.9-3.3c1.9-0.7,3.7-1.1,5.7-1.1
		c4.5,0,8.1,1.4,10.6,4.2c2.5,2.8,3.8,7,3.8,12.6c0,0.4,0,0.9,0,1.4s-0.1,1-0.1,1.4h-21.8c0.2,2.7,1.1,4.7,2.8,6.2
		c1.7,1.5,4.1,2.2,7.2,2.2c1.9,0,3.5-0.2,5.1-0.5c1.5-0.3,2.7-0.7,3.6-1.1l1,6.3c-0.4,0.2-1,0.4-1.7,0.7c-0.7,0.2-1.6,0.4-2.5,0.6
		c-0.9,0.2-2,0.3-3.1,0.5c-1.1,0.1-2.2,0.2-3.3,0.2c-2.9,0-5.4-0.4-7.6-1.3c-2.1-0.9-3.9-2.1-5.3-3.6s-2.4-3.3-3.1-5.4
		C289.7,275.4,289.4,273.1,289.4,270.6z M311.6,267.2c0-1.1-0.1-2.1-0.4-3s-0.7-1.8-1.3-2.5c-0.6-0.7-1.3-1.2-2.1-1.6
		c-0.8-0.4-1.8-0.6-2.9-0.6c-1.2,0-2.2,0.2-3.1,0.7c-0.9,0.4-1.6,1-2.2,1.7c-0.6,0.7-1.1,1.5-1.4,2.5c-0.3,0.9-0.6,1.9-0.7,2.8
		H311.6z"/>
	<path class="st0" d="M169.6,294.5c-3.6-3.5-6.8-6.9-9.8-10.6c1.4-1.6,2.6-3.5,3.4-5.8s1.2-4.9,1.2-7.7c0-2.8-0.4-5.3-1.3-7.6
		c-0.8-2.3-2-4.2-3.5-5.9c-1.5-1.6-3.3-2.9-5.4-3.8c-2.1-0.9-4.4-1.3-6.9-1.3s-4.8,0.4-6.8,1.3c-2.1,0.9-3.9,2.1-5.4,3.8
		c-1.5,1.6-2.7,3.6-3.5,5.9c-0.8,2.3-1.3,4.8-1.3,7.6c0,2.8,0.4,5.4,1.3,7.7c0.8,2.3,2,4.3,3.5,5.9s3.3,2.9,5.4,3.8
		c2.1,0.9,4.4,1.4,6.9,1.4c2.4,0,4.6-0.4,6.6-1.2c2.4,4,5.2,7.8,8.3,11.5C165.3,297.6,166.8,296.5,169.6,294.5z M141.1,278.9
		c-1.5-2.1-2.3-4.9-2.3-8.5c0-3.5,0.8-6.3,2.3-8.4s3.6-3.1,6.3-3.1c2.7,0,4.8,1,6.3,3.1s2.3,4.8,2.3,8.4c0,3.6-0.8,6.4-2.3,8.5
		c-1.5,2.1-3.6,3.1-6.3,3.1C144.7,282,142.6,281,141.1,278.9z"/>
	<path class="st0" d="M197.8,286c-1.5,0.4-3.4,0.8-5.8,1.2c-2.4,0.4-5,0.6-7.8,0.6c-2.7,0-4.9-0.4-6.7-1.1c-1.8-0.8-3.2-1.8-4.3-3.2
		c-1.1-1.3-1.8-3-2.3-4.8c-0.5-1.9-0.7-3.9-0.7-6.2v-18.6h7.6v17.4c0,3.5,0.5,6.1,1.5,7.6s2.8,2.3,5.4,2.3c0.9,0,1.9,0,2.9-0.1
		s1.8-0.2,2.3-0.3v-26.9h7.6V286H197.8z"/>
	<path class="st0" d="M90.1,302.3c-1.5-7.1-7.8-12.4-15.4-12.4c-7.5,0-13.8,5.3-15.4,12.4c4.7,2.2,9.9,3.4,15.4,3.4
		C80.2,305.6,85.4,304.4,90.1,302.3z"/>
	<path class="st0" d="M111.4,268.9c0-1.5-0.1-2.9-0.3-4.3c-7.1-0.7-14.1,3.7-16.4,10.8c-2.3,7.2,0.8,14.8,7,18.4
		C107.7,287.3,111.4,278.6,111.4,268.9z"/>
	<path class="st0" d="M87.1,251.9c6.1,4.4,14.3,3.8,19.7-1c-1.7-2.9-3.7-5.6-6.1-8c-5-5-11.5-8.6-18.8-10
		C79,239.5,81,247.5,87.1,251.9z"/>
	<path class="st0" d="M42.7,251c5.4,4.8,13.6,5.4,19.7,1s8.1-12.4,5.2-19c-7.3,1.4-13.7,5-18.8,10C46.4,245.3,44.3,248,42.7,251z"/>
	<path class="st0" d="M54.8,275.4c-2.4-7.1-9.4-11.5-16.5-10.8c-0.2,1.4-0.3,2.9-0.3,4.3c0,9.7,3.7,18.4,9.8,24.9
		C54,290.2,57.1,282.6,54.8,275.4z"/>
</g>
<g id="Cloud">
	<path class="st1" d="M404.2,287.6c0,0.5-0.1,0.8-0.4,1c-0.2,0.3-0.6,0.5-0.9,0.6c-0.3,0.1-0.8,0.2-1.3,0.3c-0.5,0-1,0.1-1.5,0.1
		c-1.1,0-2.2,0-3.1-0.1c-0.9,0-1.8-0.1-2.5-0.2c-0.8-0.1-1.5-0.1-2.3-0.2s-1.5-0.1-2.3-0.1c-3.6,0-6.7,0.1-9.3,0.3
		c-2.7,0.2-5.2,0.4-7.4,0.7c-2.3,0.2-4.5,0.5-6.6,0.7c-2.1,0.2-4.3,0.3-6.8,0.3c-3.5,0-6.4-0.4-8.6-1.1c-2.3-0.8-4.1-1.8-5.5-3.1
		c-1.3-1.3-2.3-3-2.8-5c-0.6-2-0.8-4.1-0.8-6.6c0-3.2,0.7-6.3,1.9-9.4c1.2-3.1,2.9-5.9,5-8.6c2.1-2.7,4.4-5.2,7.1-7.4
		c2.7-2.3,5.5-4.2,8.3-5.8c2.8-1.6,5.7-2.9,8.6-3.9s5.5-1.4,7.8-1.4c2.8,0,5,0.7,6.6,2c1.6,1.3,2.4,2.9,2.4,5c0,1.6-0.4,3-1.2,4.3
		c-0.8,1.3-1.8,2.4-2.8,3.5c-1.1,1-2.2,1.8-3.3,2.4c-1.1,0.6-2,0.8-2.6,0.8c-0.2,0-0.4,0-0.7-0.1s-0.7-0.2-0.9-0.4
		c-0.3-0.2-0.6-0.4-0.8-0.7c-0.2-0.3-0.4-0.7-0.4-1c0-0.5,0.1-0.9,0.4-1.4s0.6-0.8,0.8-0.8c0.4-0.3,0.9-0.7,1.7-1.1
		c0.8-0.4,1.4-1,2.1-1.7c0.7-0.7,1.2-1.2,1.8-2c0.5-0.7,0.8-1.3,0.8-2c0-0.8-0.4-1.5-1-1.8c-0.8-0.4-1.6-0.5-2.6-0.5
		c-2.8,0-5.6,0.6-8.5,1.6c-2.8,1-5.5,2.4-8.1,4.1c-2.5,1.7-5,3.7-7.1,5.8c-2.2,2.2-4.1,4.4-5.7,6.8s-2.9,4.6-3.9,6.8
		c-0.9,2.3-1.4,4.2-1.4,6c0,2.1,0.3,3.8,0.8,5.1c0.6,1.2,1.2,2.2,2.2,2.8c1,0.6,1.9,1.1,2.9,1.3c1.1,0.2,2.2,0.3,3.2,0.3
		c0.9,0,2.2-0.1,3.7-0.2s3.3-0.3,5.2-0.6c1.9-0.2,3.9-0.5,6-0.7c2.2-0.2,4.2-0.5,6.3-0.7c2.1-0.2,4-0.4,5.8-0.6
		c1.9-0.1,3.5-0.2,4.9-0.2c3.4,0,6.1,0.2,8.4,0.6s3.9,0.9,5.3,1.5c1.3,0.7,2.3,1.3,2.7,2.2C404,286,404.2,286.8,404.2,287.6z"/>
	<path class="st1" d="M411.7,284.2c0,0.7-0.1,1.1-0.3,1.7c-0.2,0.5-0.6,0.8-1.1,0.8c-0.4,0-0.7-0.2-0.9-0.6
		c-0.3-0.4-0.6-0.8-0.8-1.3c-0.3-0.6-0.5-1.1-0.8-1.9c-0.4-1.1-0.9-2.8-1.7-5.1c-0.8-2.3-1.5-4.8-2.4-7.6c-0.9-2.8-1.8-5.7-2.7-8.7
		s-1.8-5.9-2.5-8.6c-0.8-2.6-1.4-5-1.9-7.1c-0.5-2-0.8-3.4-0.8-4.1c0-0.4,0-0.8,0.1-1.3s0.2-0.9,0.4-1.3c0.2-0.4,0.5-0.8,0.8-1
		c0.3-0.3,0.7-0.4,1-0.4s0.8,0.1,1.1,0.4c0.4,0.3,0.7,0.6,0.9,0.9c0.3,0.4,0.6,0.8,0.8,1.2c0.2,0.4,0.4,0.8,0.4,1
		c0.6,2,1.1,4.3,1.9,7.1c0.8,2.7,1.4,5.6,2.3,8.6c0.8,3,1.5,6,2.4,9c0.8,3,1.4,5.7,2.1,8.3c0.6,2.5,1.1,4.7,1.5,6.5
		C411.5,282.5,411.7,283.7,411.7,284.2z"/>
	<path class="st1" d="M438.8,271.4c0,1.4-0.6,3-1.8,4.8c-1.2,1.8-2.7,3.6-4.6,5.2c-1.9,1.7-3.9,3-6.3,4.1c-2.3,1.1-4.5,1.7-6.8,1.7
		c-1.1,0-2-0.3-2.7-0.8c-0.8-0.6-1.3-1.1-1.7-1.9c-0.4-0.8-0.7-1.5-0.8-2.4c-0.2-0.8-0.3-1.5-0.3-2.1c0-1.1,0.3-2.2,0.8-3.3
		c0.5-1.1,1.1-2.2,2-3.3c0.8-1,1.8-2.1,2.8-2.9c1-0.9,2.2-1.7,3.2-2.4c1.1-0.7,2.2-1.2,3.3-1.6c1-0.4,2.1-0.6,2.9-0.6
		c0.9,0,1.9,0.2,2.6,0.7s1.2,1,1.2,1.8c0,0.4-0.1,0.7-0.4,0.9c-0.3,0.3-0.6,0.6-0.8,0.8c-0.3,0.2-0.7,0.4-0.9,0.6
		c-0.3,0.1-0.6,0.2-0.7,0.2c-0.2,0-0.7,0.1-1.3,0.4c-0.7,0.3-1.4,0.7-2.3,1c-0.8,0.5-1.7,0.9-2.5,1.7c-0.8,0.7-1.7,1.3-2.4,2.1
		s-1.3,1.6-1.8,2.4c-0.5,0.8-0.8,1.8-0.8,2.7c0,0.4,0.1,0.8,0.3,0.9c0.2,0.3,0.4,0.4,0.7,0.5s0.7,0.2,0.9,0.3c0.9,0,2.3-0.4,3.8-1
		c1.5-0.7,3-1.6,4.5-2.6s2.7-2.3,3.8-3.5c1-1.3,1.6-2.5,1.6-3.7c0-0.5-0.1-0.8-0.2-1s-0.3-0.4-0.4-0.6c-0.2-0.2-0.3-0.4-0.4-0.6
		c-0.1-0.2-0.2-0.5-0.2-0.8c0-0.7,0.3-1.1,0.8-1.5s1-0.5,1.5-0.5c0.4,0,0.7,0.1,1.1,0.3c0.4,0.2,0.8,0.5,1.1,0.8
		c0.4,0.4,0.7,0.8,0.8,1.3C438.7,270.1,438.8,270.8,438.8,271.4z"/>
	<path class="st1" d="M460.5,278.7c0,2.6-0.7,4.7-1.9,6.1c-1.2,1.5-2.9,2.2-4.9,2.2c-1.5,0-2.9-0.5-4.1-1.3c-1.2-0.8-2.3-2-3.2-3.3
		c-0.9-1.3-1.8-2.7-2.4-4.3c-0.7-1.6-1.2-3-1.7-4.5c-0.5-1.4-0.8-2.6-0.9-3.8c-0.2-1-0.3-1.8-0.3-2.1c0-0.6,0.2-1.1,0.5-1.8
		c0.3-0.6,0.8-0.8,1.5-0.8c0.4,0,0.8,0.1,1,0.4c0.4,0.3,0.7,0.6,0.8,1c0.3,0.4,0.5,0.8,0.7,1.2c0.2,0.5,0.3,0.8,0.4,1.2
		c0.2,0.8,0.5,2,0.9,3.4c0.5,1.4,1,2.8,1.8,4.1c0.8,1.3,1.5,2.5,2.4,3.5s2,1.4,3,1.4c0.8,0,1.6-0.3,2.2-0.8c0.6-0.6,0.8-1.5,0.8-2.8
		c0-1-0.1-2-0.4-2.8c-0.3-0.8-0.6-1.6-0.9-2.3c-0.3-0.7-0.7-1.3-0.9-2c-0.3-0.7-0.4-1.3-0.4-2c0-0.4,0.1-0.8,0.3-1
		c0.2-0.3,0.5-0.5,0.9-0.5c0.6,0,1.1,0.4,1.7,1.2s1,1.8,1.5,3c0.5,1.1,0.8,2.4,1,3.7C460.4,276.6,460.5,277.7,460.5,278.7z"/>
	<path class="st1" d="M500.6,284.5c0,0.4-0.1,0.7-0.3,0.8c-0.2,0.2-0.4,0.4-0.6,0.5c-0.2,0.1-0.4,0.2-0.7,0.2c-0.2,0-0.4,0-0.4,0
		c-1,0-2-0.4-2.9-0.9c-0.9-0.6-1.8-1.2-2.5-2.1c-0.8-0.8-1.5-1.6-2.1-2.5c-0.7-0.8-1.1-1.7-1.6-2.4c-0.6-0.9-1.2-2.2-1.9-3.7
		c-0.7-1.4-1.2-2.8-1.8-4.1c-0.6-1.3-0.9-2.4-1.3-3.5c-0.4-0.9-0.6-1.4-0.7-1.4s-0.1,0-0.1,0.1c0,0,0,0.1-0.1,0.2
		c-0.6,2.4-1.4,5-2.6,7.5s-2.6,4.9-4.2,7c-1.6,2.1-3.3,3.8-5.1,5.1c-1.8,1.3-3.5,2-5.2,2c-0.6,0-1-0.1-1.6-0.2
		c-0.6-0.2-1-0.5-1.5-0.8c-0.5-0.4-0.8-0.9-1-1.6c-0.3-0.7-0.4-1.5-0.4-2.4c0-2,0.6-3.9,1.7-5.7c1.1-1.9,2.4-3.7,4-5.3
		c1.5-1.6,3.1-2.9,4.6-4c1.5-1.1,2.6-1.8,3.5-2.1c0.8-0.3,1.4-0.4,1.9-0.4s0.8,0.1,1.1,0.2c0.3,0.1,0.6,0.3,0.8,0.5
		c0.2,0.2,0.4,0.3,0.5,0.5c0.1,0.1,0.2,0.2,0.3,0.2c0.2,0,0.4-0.4,0.6-1.1c0.2-0.8,0.4-1.6,0.5-2.5c0.2-0.9,0.3-1.9,0.4-2.7
		c0.1-0.9,0.1-1.5,0.1-1.9c-0.6-3-1-5.9-1.5-8.6c-0.2-1.2-0.4-2.4-0.6-3.7c-0.2-1.2-0.4-2.4-0.5-3.7c-0.1-1.1-0.3-2.3-0.4-3.3
		s-0.1-2-0.1-2.7c0-1.2,0.2-2,0.5-2.4c0.3-0.4,0.7-0.5,0.9-0.5c0.8,0,1.6,0.8,2.2,2.3c1.1,2.5,1.8,5.7,2.1,9.7
		c0.3,3.9,0.4,8.3,0.5,13.1c0,0.5,0.2,1.4,0.7,2.9s1.1,3.2,2.1,5.3c0.9,2,2.1,4.1,3.4,6.4c1.4,2.3,3,4.3,4.8,6.3
		c0.9,1,1.8,1.9,2.6,2.6c0.8,0.8,1.3,1.3,1.5,1.8C500.5,283.6,500.6,284,500.6,284.5z M479.3,269.7c0-0.1-0.1-0.2-0.2-0.2
		s-0.5,0.2-1.1,0.7c-0.7,0.5-1.4,1-2.3,1.8c-0.8,0.8-1.8,1.6-2.8,2.5s-1.9,1.9-2.7,2.8c-0.8,0.9-1.5,2-2.1,2.8
		c-0.6,0.9-0.8,1.7-0.8,2.4c0,0.3,0.1,0.5,0.2,0.7c0.2,0.1,0.3,0.2,0.5,0.2c0.7,0,1.3-0.3,2.2-0.8c0.8-0.6,1.6-1.3,2.4-2.3
		c0.8-0.9,1.7-1.9,2.4-3c0.8-1.1,1.5-2.2,2.2-3.2s1.1-1.9,1.5-2.7C479.1,270.6,479.3,270,479.3,269.7z"/>
</g>
</svg>
