<?xml version="1.0" encoding="utf-8"?>
<!-- Generator: Adobe Illustrator 18.1.1, SVG Export Plug-In . SVG Version: 6.00 Build 0)  -->
<svg version="1.1" id="Laag_1" xmlns="http://www.w3.org/2000/svg" xmlns:xlink="http://www.w3.org/1999/xlink" x="0px" y="0px"
	 viewBox="-256 536 512 512" enable-background="new -256 536 512 512" xml:space="preserve">
<g>
	<g>
		<path fill="#FFFFFF" d="M-130.9,747.9c4.2,2.2,12.8,1.1,18.8,1.1h229.5c6.4,0,13.4,0.5,17.2-2.1c5-3.6,3.8-14,3.7-22.5
			c-8.4-8.8-21.9-12.9-33.2-18.8c-22.2-11.6-45.1-22.1-67.6-33.8c-8-4.2-16.4-8-24.7-12.3c-3.8-2-7.8-5.5-12.9-5.9
			c-3,2.9-8,3.9-11.8,5.9c-9.1,4.7-18.6,9.1-27.9,13.9c-31.4,16.4-65.2,30.9-95.5,48.8C-137.4,730.8-137.6,744.5-130.9,747.9z
			 M-62.3,875.5v-94.9c6-0.7,6.7-3.7,10.2-6.4c0.3-4.6,0.6-10.2,0.5-15.6h-63.8c-0.3,10.1-0.9,18.9,7,20.9c0.9,0.7,2.3,0.9,3.8,1.1
			v94.9L-62.3,875.5L-62.3,875.5z M22.4,875.5v-94.9c1.3-0.2,2.5-0.4,3.7-0.5c7.1-6.7,7.3-7.6,7-21.5h-64.4
			c-0.2,9.6-0.4,18.9,7,20.9c0.9,0.7,2.3,0.9,3.8,1.1v94.9H22.4z M106.6,875.5v-94.9c1.3-0.2,2.5-0.4,3.7-0.5
			c7.7-7.2,7.3-6.5,7-21.5H53.5c-0.1,3.6-1,11,0.5,13.4c0.3,3.9,3,6.7,6.4,7.5c0.9,0.7,2.3,0.9,3.8,1.1v94.9H106.6z M138.2,906.6
			c0-7,0.8-14.7-2.7-18.2c-3.1-3.1-9.2-2.7-15.5-2.7h-248.8c-2,1.6-4.4,3.5-6.4,4.8c-1.9,8.2-1.2,20.6-1.1,30.6
			c2.4,2.6,2.9,5.3,7,6.4c2.7,1.7,15.5,0.5,19.8,0.5h240.8c2.6-2.4,5.3-2.9,6.4-7C139.4,918.4,138.2,910.5,138.2,906.6z"/>
	</g>
</g>
</svg>
